<svg width="1013" height="642" viewBox="0 0 1013 642" fill="none" xmlns="http://www.w3.org/2000/svg">
<mask id="mask0_514_6000" style="mask-type:luminance" maskUnits="userSpaceOnUse" x="0" y="0" width="1013" height="642">
<path d="M0 0H1012.36V642H0V0Z" fill="white"/>
</mask>
<g mask="url(#mask0_514_6000)">
<path d="M945.8 642.394H121.091L0.169922 499.967V78.8892L61.522 1.63751H479.772L538.156 75.0411H707.442L767.181 -0.179443H948.856L1012.92 80.492V557.667L945.8 642.394ZM124.482 631.706H942.321L1004.61 553.177V84.872L945.46 10.3976H770.742L711.003 85.6181H534.76L476.381 12.2145H65.0829L8.65782 83.2692V495.373L124.482 631.706Z" fill="white"/>
</g>
<path d="M523.133 640.473L487.157 595.167H190.837L159.02 555.208H50.998V549.867H160.803L192.62 589.827H488.934L526.189 636.729L523.133 640.473Z" fill="white"/>
<path d="M511.254 51.3241H419.188L400.516 27.8142H297.674L281.719 7.73102L284.687 3.98657L299.457 22.4739H402.212L420.883 45.9769H511.254V51.3241Z" fill="white"/>
<path d="M834.553 49.3965H735.869V44.0562H832.775L853.646 17.769H956.999V23.1163H855.43L834.553 49.3965Z" fill="white"/>
<path d="M570.314 80.2776H536.456L494.285 27.1714H528.143L570.314 80.2776Z" fill="white"/>
<path d="M626.232 80.2776H592.374L550.203 27.1714H584.061L626.232 80.2776Z" fill="white"/>
<path d="M682.236 80.2776H648.383L606.207 27.1714H640.065L682.236 80.2776Z" fill="white"/>
<path d="M107.002 555.311L48.2836 481.376V403.378L2.88672 346.32L5.9428 342.479L52.5248 401.133V479.13L110.058 551.574L107.002 555.311Z" fill="white"/>
</svg>
