<svg width="330" height="346" viewBox="0 0 330 346" fill="none" xmlns="http://www.w3.org/2000/svg">
<mask id="mask0_1_27" style="mask-type:luminance" maskUnits="userSpaceOnUse" x="313" y="18" width="17" height="302">
<path d="M313.918 18.1067H329.996V319.462H313.918V18.1067Z" fill="white"/>
</mask>
<g mask="url(#mask0_1_27)">
<path d="M313.991 319.454H329.977V18.2056H313.991V319.454Z" fill="#99FF52"/>
<path d="M313.991 319.454H329.977V18.2056H313.991V319.454Z" fill="#99FF52"/>
</g>
<mask id="mask1_1_27" style="mask-type:luminance" maskUnits="userSpaceOnUse" x="230" y="321" width="100" height="10">
<path d="M230.465 321.616H330V330.667H230.465V321.616Z" fill="white"/>
</mask>
<g mask="url(#mask1_1_27)">
<path d="M330 321.848L323.242 330.332H230.599L237.473 321.702L330 321.848Z" fill="#99FF52"/>
</g>
<path d="M291.849 330.332L287.081 336.313H189.379L184.488 330.173L291.849 330.332Z" fill="#99FF52"/>
<path d="M184.467 26.53L191.225 18.0464H283.868L276.994 26.6762L184.467 26.53Z" fill="#99FF52"/>
<mask id="mask2_1_27" style="mask-type:luminance" maskUnits="userSpaceOnUse" x="222" y="11" width="108" height="8">
<path d="M222.565 11.6395H329.999V18.5408H222.565V11.6395Z" fill="white"/>
</mask>
<g mask="url(#mask2_1_27)">
<path d="M222.62 18.0463L227.384 12.0652H325.086L329.977 18.2054L222.62 18.0463Z" fill="#99FF52"/>
</g>
<mask id="mask3_1_27" style="mask-type:luminance" maskUnits="userSpaceOnUse" x="0" y="4" width="133" height="138">
<path d="M0 4.38147H132.712V141.977H0V4.38147Z" fill="white"/>
</mask>
<g mask="url(#mask3_1_27)">
<path d="M131.885 16.4642L123.942 26.4313H11.8192L11.7953 141.809L6.75671 135.484V73.2352L0.022644 64.786V25.4466L8.02063 13.5919H65.9555L72.8231 4.9707H101.606L110.915 16.4642H131.885Z" fill="#99FF52"/>
</g>
<mask id="mask4_1_27" style="mask-type:luminance" maskUnits="userSpaceOnUse" x="73" y="0" width="163" height="14">
<path d="M73.9604 0H235.304V13.1877H73.9604V0Z" fill="white"/>
</mask>
<g mask="url(#mask4_1_27)">
<path d="M234.167 12.9598H114.173L114.026 12.7792L104.843 1.24696H74.8172C74.5432 1.24696 74.324 0.971767 74.324 0.623479C74.324 0.279491 74.5432 0 74.8172 0H105.257L105.405 0.180594L114.584 11.7085H234.167C234.445 11.7085 234.664 11.988 234.664 12.332C234.664 12.6803 234.445 12.9598 234.167 12.9598Z" fill="#99FF52"/>
</g>
<path d="M238.169 332.723H11.2492C10.1976 332.723 9.34473 331.657 9.34473 330.332V82.695C9.34473 81.375 10.1976 80.3086 11.2492 80.3086C12.3007 80.3086 13.1536 81.375 13.1536 82.695V327.946H238.169C239.221 327.946 240.07 329.012 240.07 330.332C240.07 331.657 239.221 332.723 238.169 332.723Z" fill="#99FF52"/>
<path d="M11.2479 132.079L16.2591 125.788V58.8479L11.2068 52.5056L11.2479 132.079Z" fill="#99FF52"/>
<path d="M10.0078 41.7514L24.4658 23.606H8.32602L10.0078 41.7514Z" fill="#99FF52"/>
<mask id="mask5_1_27" style="mask-type:luminance" maskUnits="userSpaceOnUse" x="0" y="99" width="165" height="247">
<path d="M0.30365 99.047H164.278V345.089H0.30365V99.047Z" fill="white"/>
</mask>
<g mask="url(#mask5_1_27)">
<path d="M95.1513 344.896H10.9344L0.648376 331.975V112.652L10.544 100.221C10.8043 99.8984 11.2222 99.8984 11.4791 100.221C11.7394 100.548 11.7394 101.072 11.4791 101.395L1.9671 113.335V331.295L11.4825 343.236H94.5999L97.6552 339.392H155.34L163.03 329.747C163.287 329.425 163.708 329.425 163.965 329.747C164.222 330.07 164.222 330.599 163.965 330.921L155.885 341.056H98.2067L95.1513 344.896Z" fill="#99FF52"/>
</g>
<path d="M315.634 163.721C315.466 163.721 315.295 163.64 315.168 163.476L307.995 154.472V114.217L310.917 110.549V57.9233L308.03 54.2986V27.0203L304.457 22.5355H276.661C276.294 22.5355 275.996 22.1614 275.996 21.7013C275.996 21.2455 276.294 20.8715 276.661 20.8715H305.002L309.352 26.3323V53.6149L312.239 57.2397V111.233L309.321 114.901V153.789L316.103 162.302C316.36 162.629 316.36 163.154 316.103 163.476C315.973 163.64 315.805 163.721 315.634 163.721Z" fill="#99FF52"/>
<path d="M223.768 319.535H228.93V326.015H223.768V319.535Z" fill="#99FF52"/>
<path d="M217.069 319.535H222.234V326.015H217.069V319.535Z" fill="#99FF52"/>
<path d="M210.373 319.535H215.538V326.015H210.373V319.535Z" fill="#99FF52"/>
<path d="M203.675 319.535H208.84V326.015H203.675V319.535Z" fill="#99FF52"/>
<path d="M196.98 319.535H202.142V326.015H196.98V319.535Z" fill="#99FF52"/>
<path d="M190.28 319.535H195.445V326.015H190.28V319.535Z" fill="#99FF52"/>
<path d="M183.584 319.535H188.749V326.015H183.584V319.535Z" fill="#99FF52"/>
<path d="M176.888 319.535H182.053V326.015H176.888V319.535Z" fill="#99FF52"/>
<path d="M170.191 319.535H175.352V326.015H170.191V319.535Z" fill="#99FF52"/>
<path d="M163.492 319.535H168.657V326.015H163.492V319.535Z" fill="#99FF52"/>
<path d="M156.795 319.535H161.961V326.015H156.795V319.535Z" fill="#99FF52"/>
<path d="M150.098 319.535H155.264V326.015H150.098V319.535Z" fill="#99FF52"/>
<path d="M143.401 319.535H148.567V326.015H143.401V319.535Z" fill="#99FF52"/>
<path d="M136.705 319.535H141.867V326.015H136.705V319.535Z" fill="#99FF52"/>
<path d="M130.005 319.535H135.171V326.015H130.005V319.535Z" fill="#99FF52"/>
<path d="M123.309 319.535H128.474V326.015H123.309V319.535Z" fill="#99FF52"/>
<path d="M116.613 319.535H121.778V326.015H116.613V319.535Z" fill="#99FF52"/>
<path d="M109.917 319.535H115.079V326.015H109.917V319.535Z" fill="#99FF52"/>
<path d="M103.22 319.535H108.382V326.015H103.22V319.535Z" fill="#99FF52"/>
<path d="M96.521 319.535H101.686V326.015H96.521V319.535Z" fill="#99FF52"/>
<path d="M89.8239 319.535H94.9892V326.015H89.8239V319.535Z" fill="#99FF52"/>
<path d="M83.1269 319.535H88.2888V326.015H83.1269V319.535Z" fill="#99FF52"/>
<path d="M76.4308 319.535H81.5927V326.015H76.4308V319.535Z" fill="#99FF52"/>
<path d="M69.7308 319.535H74.8961V326.015H69.7308V319.535Z" fill="#99FF52"/>
<path d="M63.0348 319.535H68.2001V326.015H63.0348V319.535Z" fill="#99FF52"/>
<path d="M56.3377 319.535H61.4996V326.015H56.3377V319.535Z" fill="#99FF52"/>
<path d="M49.6416 319.535H54.8035V326.015H49.6416V319.535Z" fill="#99FF52"/>
<path d="M42.9426 319.535H48.1079V326.015H42.9426V319.535Z" fill="#99FF52"/>
<path d="M36.2456 319.535H41.4109V326.015H36.2456V319.535Z" fill="#99FF52"/>
<path d="M29.5485 319.535H34.7138V326.015H29.5485V319.535Z" fill="#99FF52"/>
<path d="M22.8524 319.535H28.0143V326.015H22.8524V319.535Z" fill="#99FF52"/>
<path d="M16.1564 319.535H21.3182V326.015H16.1564V319.535Z" fill="#99FF52"/>
<path d="M9.76138 59.8712C9.27499 59.8712 8.7886 59.639 8.41525 59.1746C7.67197 58.2415 7.67197 56.728 8.41525 55.7949L25.9766 33.7453C26.3328 33.2981 26.8192 33.0487 27.3227 33.0487H95.9786L105.83 20.6694C106.189 20.2222 106.672 19.9685 107.179 19.9685H206.532C207.584 19.9685 208.433 21.0392 208.433 22.3592C208.433 23.6793 207.584 24.7456 206.532 24.7456H107.964L98.1091 37.1249C97.7529 37.5721 97.2665 37.8215 96.763 37.8215H28.1105L11.1075 59.1746C10.7342 59.639 10.2478 59.8712 9.76138 59.8712Z" fill="#99FF52"/>
<path d="M308.687 314.952H18.4543V132.246L21.5645 128.346V55.8894L21.311 55.5756L30.3092 44.2798H96.7627C98.674 44.2798 100.479 43.3468 101.842 41.6526L108.82 32.8938H126.138L127.48 31.204H173.081L171.677 32.9669L279.185 33.1389L282.494 28.9852H302.254L302.727 29.5743V56.8526L305.615 60.4817V107.591L302.693 111.254V157.031L308.687 164.555V314.952Z" fill="#858585"/>
</svg>
