<svg width="330" height="346" viewBox="0 0 330 346" fill="none" xmlns="http://www.w3.org/2000/svg">
<mask id="mask0_797_185" style="mask-type:luminance" maskUnits="userSpaceOnUse" x="313" y="18" width="17" height="302">
<path d="M313.918 18.1064H329.996V319.462H313.918V18.1064Z" fill="white"/>
</mask>
<g mask="url(#mask0_797_185)">
<path d="M313.99 319.453H329.976V18.2051H313.99V319.453Z" fill="#99FF52"/>
<path d="M313.99 319.453H329.976V18.2051H313.99V319.453Z" fill="#99FF52"/>
</g>
<mask id="mask1_797_185" style="mask-type:luminance" maskUnits="userSpaceOnUse" x="230" y="321" width="100" height="10">
<path d="M230.465 321.616H330V330.667H230.465V321.616Z" fill="white"/>
</mask>
<g mask="url(#mask1_797_185)">
<path d="M330.001 321.848L323.243 330.332H230.6L237.474 321.702L330.001 321.848Z" fill="#99FF52"/>
</g>
<path d="M291.85 330.332L287.082 336.314H189.38L184.488 330.173L291.85 330.332Z" fill="#99FF52"/>
<path d="M184.467 26.53L191.225 18.0464H283.868L276.993 26.6762L184.467 26.53Z" fill="#99FF52"/>
<mask id="mask2_797_185" style="mask-type:luminance" maskUnits="userSpaceOnUse" x="222" y="11" width="108" height="8">
<path d="M222.564 11.6396H329.998V18.5409H222.564V11.6396Z" fill="white"/>
</mask>
<g mask="url(#mask2_797_185)">
<path d="M222.619 18.0465L227.384 12.0654H325.086L329.977 18.2056L222.619 18.0465Z" fill="#99FF52"/>
</g>
<mask id="mask3_797_185" style="mask-type:luminance" maskUnits="userSpaceOnUse" x="0" y="4" width="133" height="138">
<path d="M0 4.38135H132.712V141.977H0V4.38135Z" fill="white"/>
</mask>
<g mask="url(#mask3_797_185)">
<path d="M131.886 16.4642L123.943 26.4313H11.82L11.7961 141.809L6.7575 135.484V73.2352L0.0234375 64.786V25.4466L8.02142 13.5919H65.9563L72.8239 4.9707H101.606L110.916 16.4642H131.886Z" fill="#99FF52"/>
</g>
<mask id="mask4_797_185" style="mask-type:luminance" maskUnits="userSpaceOnUse" x="73" y="0" width="163" height="14">
<path d="M73.9609 0H235.304V13.1877H73.9609V0Z" fill="white"/>
</mask>
<g mask="url(#mask4_797_185)">
<path d="M234.167 12.9598H114.174L114.026 12.7792L104.843 1.24696H74.8175C74.5434 1.24696 74.3242 0.971767 74.3242 0.623479C74.3242 0.279491 74.5434 0 74.8175 0H105.258L105.405 0.180594L114.585 11.7085H234.167C234.445 11.7085 234.664 11.988 234.664 12.332C234.664 12.6803 234.445 12.9598 234.167 12.9598Z" fill="#99FF52"/>
</g>
<path d="M238.168 332.723H11.2482C10.1966 332.723 9.34375 331.657 9.34375 330.332V82.695C9.34375 81.375 10.1966 80.3086 11.2482 80.3086C12.2998 80.3086 13.1526 81.375 13.1526 82.695V327.946H238.168C239.22 327.946 240.069 329.012 240.069 330.332C240.069 331.657 239.22 332.723 238.168 332.723Z" fill="#99FF52"/>
<path d="M11.2481 132.079L16.2593 125.788V58.8481L11.207 52.5059L11.2481 132.079Z" fill="#99FF52"/>
<path d="M10.008 41.7514L24.466 23.606H8.32617L10.008 41.7514Z" fill="#99FF52"/>
<mask id="mask5_797_185" style="mask-type:luminance" maskUnits="userSpaceOnUse" x="0" y="99" width="165" height="247">
<path d="M0.302734 99.0469H164.277V345.089H0.302734V99.0469Z" fill="white"/>
</mask>
<g mask="url(#mask5_797_185)">
<path d="M95.1514 344.896H10.9345L0.648438 331.975V112.652L10.544 100.221C10.8043 99.8984 11.2222 99.8984 11.4791 100.221C11.7394 100.548 11.7394 101.072 11.4791 101.395L1.96716 113.335V331.295L11.4825 343.236H94.5999L97.6553 339.392H155.34L163.03 329.747C163.287 329.425 163.708 329.425 163.965 329.747C164.222 330.07 164.222 330.599 163.965 330.921L155.885 341.056H98.2067L95.1514 344.896Z" fill="#99FF52"/>
</g>
<path d="M315.633 163.721C315.465 163.721 315.294 163.64 315.167 163.476L307.995 154.472V114.217L310.917 110.549V57.9235L308.029 54.2987V27.0204L304.457 22.5356H276.661C276.294 22.5356 275.996 22.1615 275.996 21.7015C275.996 21.2457 276.294 20.8716 276.661 20.8716H305.001L309.351 26.3324V53.615L312.239 57.2398V111.233L309.32 114.901V153.789L316.102 162.303C316.359 162.629 316.359 163.154 316.102 163.476C315.972 163.64 315.804 163.721 315.633 163.721Z" fill="#99FF52"/>
<path d="M223.768 319.535H228.929V326.015H223.768V319.535Z" fill="#99FF52"/>
<path d="M217.068 319.535H222.234V326.015H217.068V319.535Z" fill="#99FF52"/>
<path d="M210.373 319.535H215.538V326.015H210.373V319.535Z" fill="#99FF52"/>
<path d="M203.674 319.535H208.839V326.015H203.674V319.535Z" fill="#99FF52"/>
<path d="M196.98 319.535H202.142V326.015H196.98V319.535Z" fill="#99FF52"/>
<path d="M190.279 319.535H195.445V326.015H190.279V319.535Z" fill="#99FF52"/>
<path d="M183.584 319.535H188.749V326.015H183.584V319.535Z" fill="#99FF52"/>
<path d="M176.887 319.535H182.052V326.015H176.887V319.535Z" fill="#99FF52"/>
<path d="M170.191 319.535H175.353V326.015H170.191V319.535Z" fill="#99FF52"/>
<path d="M163.492 319.535H168.657V326.015H163.492V319.535Z" fill="#99FF52"/>
<path d="M156.795 319.535H161.96V326.015H156.795V319.535Z" fill="#99FF52"/>
<path d="M150.098 319.535H155.263V326.015H150.098V319.535Z" fill="#99FF52"/>
<path d="M143.4 319.535H148.566V326.015H143.4V319.535Z" fill="#99FF52"/>
<path d="M136.705 319.535H141.867V326.015H136.705V319.535Z" fill="#99FF52"/>
<path d="M130.006 319.535H135.171V326.015H130.006V319.535Z" fill="#99FF52"/>
<path d="M123.309 319.535H128.474V326.015H123.309V319.535Z" fill="#99FF52"/>
<path d="M116.613 319.535H121.779V326.015H116.613V319.535Z" fill="#99FF52"/>
<path d="M109.918 319.535H115.08V326.015H109.918V319.535Z" fill="#99FF52"/>
<path d="M103.221 319.535H108.383V326.015H103.221V319.535Z" fill="#99FF52"/>
<path d="M96.5215 319.535H101.687V326.015H96.5215V319.535Z" fill="#99FF52"/>
<path d="M89.8242 319.535H94.9895V326.015H89.8242V319.535Z" fill="#99FF52"/>
<path d="M83.127 319.535H88.2888V326.015H83.127V319.535Z" fill="#99FF52"/>
<path d="M76.4316 319.535H81.5935V326.015H76.4316V319.535Z" fill="#99FF52"/>
<path d="M69.7305 319.535H74.8958V326.015H69.7305V319.535Z" fill="#99FF52"/>
<path d="M63.0352 319.535H68.2004V326.015H63.0352V319.535Z" fill="#99FF52"/>
<path d="M56.3379 319.535H61.4998V326.015H56.3379V319.535Z" fill="#99FF52"/>
<path d="M49.6426 319.535H54.8044V326.015H49.6426V319.535Z" fill="#99FF52"/>
<path d="M42.9434 319.535H48.1087V326.015H42.9434V319.535Z" fill="#99FF52"/>
<path d="M36.2461 319.535H41.4114V326.015H36.2461V319.535Z" fill="#99FF52"/>
<path d="M29.5488 319.535H34.7141V326.015H29.5488V319.535Z" fill="#99FF52"/>
<path d="M22.8516 319.535H28.0134V326.015H22.8516V319.535Z" fill="#99FF52"/>
<path d="M16.1562 319.535H21.3181V326.015H16.1562V319.535Z" fill="#99FF52"/>
<path d="M9.76101 59.8714C9.27462 59.8714 8.78824 59.6392 8.41488 59.1749C7.6716 58.2418 7.6716 56.7282 8.41488 55.7952L25.9762 33.7455C26.3324 33.2983 26.8188 33.0489 27.3223 33.0489H95.9783L105.829 20.6696C106.189 20.2224 106.672 19.9688 107.179 19.9688H206.532C207.584 19.9688 208.433 21.0394 208.433 22.3595C208.433 23.6795 207.584 24.7459 206.532 24.7459H107.963L98.1088 37.1252C97.7525 37.5724 97.2662 37.8218 96.7626 37.8218H28.1101L11.1071 59.1749C10.7338 59.6392 10.2474 59.8714 9.76101 59.8714Z" fill="#99FF52"/>
<path d="M31.76 93V89.64H34.36V73.48H31.76V70.12H42.44V73.48H39.84V79.68H49.32V73.48H46.72V70.12H57.4V73.48H54.8V89.64H57.4V93H46.72V89.64H49.32V82.96H39.84V89.64H42.44V93H31.76ZM59.9006 93V89.64H62.5006V73.48H59.9006V70.12H80.9406V77.6H77.3806V73.48H68.0206V79.6H72.8206V77.2H75.5806V85.32H72.8606V82.84H68.0206V89.6H77.5406V85.2H81.1406V93H59.9006ZM83.1397 93V89.64H85.6997L91.6597 73.48H89.2997V70.12H103.42V73.48H101.06L107.14 89.64H109.58V93H98.7797V89.64H101.5L99.8597 84.64H92.3397L90.6597 89.64H93.1797V93H83.1397ZM93.2997 81.44H98.8597L96.2597 73.52H96.0597L93.2997 81.44ZM111.338 93V89.64H113.938V73.28H111.338V70.12H122.018V73.28H119.418V89.64H126.858V83.24H130.698V93H111.338ZM137.408 93V89.64H140.168V73.4H135.328V78.4H131.648V70.12H154.088V78.4H150.448V73.4H145.648V89.64H148.448V93H137.408ZM155.901 93V89.64H158.501V73.48H155.901V70.12H166.581V73.48H163.981V79.68H173.461V73.48H170.861V70.12H181.541V73.48H178.941V89.64H181.541V93H170.861V89.64H173.461V82.96H163.981V89.64H166.581V93H155.901ZM200.502 93V89.64H203.262V73.4H198.422V78.4H194.742V70.12H217.182V78.4H213.542V73.4H208.742V89.64H211.542V93H200.502ZM218.994 93V89.64H221.594V73.48H218.994V70.12H240.034V77.6H236.474V73.48H227.114V79.6H231.914V77.2H234.674V85.32H231.954V82.84H227.114V89.6H236.634V85.2H240.234V93H218.994ZM255.553 93.44C253.713 93.44 252.02 93.16 250.473 92.6C248.953 92.04 247.62 91.24 246.473 90.2C245.327 89.16 244.447 87.92 243.833 86.48C243.22 85.0133 242.913 83.3733 242.913 81.56C242.913 79.1867 243.433 77.1067 244.473 75.32C245.513 73.5333 246.94 72.16 248.753 71.2C250.593 70.2133 252.7 69.72 255.073 69.72C256.673 69.72 258.087 69.96 259.313 70.44C260.567 70.8933 261.593 71.56 262.393 72.44C263.193 73.2933 263.74 74.28 264.033 75.4L262.713 74.68V70.12H266.433V77.8L263.233 77.84C262.487 76.3733 261.54 75.2933 260.393 74.6C259.273 73.88 257.887 73.52 256.233 73.52C254.633 73.52 253.26 73.8667 252.113 74.56C250.993 75.2267 250.113 76.16 249.473 77.36C248.86 78.56 248.553 79.9333 248.553 81.48C248.553 82.7067 248.727 83.8133 249.073 84.8C249.447 85.7867 249.953 86.64 250.593 87.36C251.26 88.08 252.033 88.64 252.913 89.04C253.82 89.4133 254.807 89.6 255.873 89.6C256.993 89.6 258.007 89.4133 258.913 89.04C259.82 88.64 260.593 88.0533 261.233 87.28C261.9 86.48 262.407 85.48 262.753 84.28L266.993 85.92C266.513 87.5467 265.74 88.92 264.673 90.04C263.633 91.1333 262.34 91.9733 260.793 92.56C259.247 93.12 257.5 93.4133 255.553 93.44ZM269.924 93V89.64H272.524V73.48H269.924V70.12H280.604V73.48H278.004V79.68H287.484V73.48H284.884V70.12H295.564V73.48H292.964V89.64H295.564V93H284.884V89.64H287.484V82.96H278.004V89.64H280.604V93H269.924Z" fill="white"/>
<mask id="mask6_797_185" style="mask-type:luminance" maskUnits="userSpaceOnUse" x="91" y="132" width="147" height="147">
<path d="M91 132H238V279H91V132Z" fill="white"/>
</mask>
<g mask="url(#mask6_797_185)">
<path d="M228.199 210.403C225.5 210.403 223.297 208.203 223.297 205.5C223.297 202.801 225.5 200.602 228.199 200.602C230.898 200.602 233.097 202.801 233.097 205.5C233.097 208.203 230.898 210.403 228.199 210.403ZM202.291 206.181L164.5 244.598L126.705 206.189C118.3 197.615 118.3 183.703 126.705 175.163C130.783 171.047 136.142 168.78 141.836 168.78C141.874 168.78 141.903 168.78 141.933 168.78C147.551 168.771 153.033 171.021 157.11 175.163L162.745 180.907C163.667 181.846 165.329 181.846 166.251 180.907L171.886 175.163C175.955 171.03 181.361 168.75 187.105 168.75H187.113C192.854 168.763 198.242 171.03 202.299 175.163C206.33 179.24 208.619 184.887 208.589 190.649C208.589 190.657 208.589 190.67 208.589 190.678C208.619 196.516 206.377 202.027 202.291 206.181ZM169.398 269.203C169.398 271.902 167.199 274.102 164.5 274.102C161.797 274.102 159.597 271.902 159.597 269.203C159.597 266.505 161.797 264.301 164.5 264.301C167.199 264.301 169.398 266.505 169.398 269.203ZM159.597 141.801C159.597 139.102 161.797 136.903 164.5 136.903C167.199 136.903 169.398 139.102 169.398 141.801C169.398 144.5 167.199 146.703 164.5 146.703C161.797 146.703 159.597 144.5 159.597 141.801ZM218.398 254.5C221.097 254.5 223.297 256.704 223.297 259.403C223.297 262.101 221.097 264.301 218.398 264.301C215.7 264.301 213.5 262.101 213.5 259.403C213.5 256.704 215.7 254.5 218.398 254.5ZM108.148 261.852C105.45 261.852 103.25 259.652 103.25 256.953C103.25 254.255 105.45 252.051 108.148 252.051C110.847 252.051 113.047 254.255 113.047 256.953C113.047 259.652 110.847 261.852 108.148 261.852ZM100.797 210.403C98.0979 210.403 95.8983 208.203 95.8983 205.5C95.8983 202.801 98.0979 200.602 100.797 200.602C103.495 200.602 105.699 202.801 105.699 205.5C105.699 208.203 103.495 210.403 100.797 210.403ZM110.597 156.5C107.899 156.5 105.699 154.3 105.699 151.602C105.699 148.903 107.899 146.703 110.597 146.703C113.296 146.703 115.5 148.903 115.5 151.602C115.5 154.3 113.296 156.5 110.597 156.5ZM220.847 149.153C223.546 149.153 225.75 151.352 225.75 154.051C225.75 156.75 223.546 158.953 220.847 158.953C218.149 158.953 215.949 156.75 215.949 154.051C215.949 151.352 218.149 149.153 220.847 149.153ZM228.199 195.703C223.643 195.703 219.845 198.842 218.741 203.051H210.531C212.485 199.261 213.508 195.044 213.487 190.657C213.517 183.614 210.712 176.707 205.785 171.728C201.842 167.709 196.855 165.146 191.449 164.237V161.403C191.449 158.704 193.649 156.5 196.347 156.5H211.393C212.493 160.713 216.292 163.852 220.847 163.852C226.253 163.852 230.648 159.461 230.648 154.051C230.648 148.645 226.253 144.25 220.847 144.25C216.292 144.25 212.493 147.393 211.393 151.602H196.347C190.942 151.602 186.547 155.997 186.547 161.403V163.881C179.694 164.025 173.265 166.779 168.392 171.728L166.949 173.204V151.259C171.158 150.155 174.297 146.357 174.297 141.801C174.297 136.395 169.906 132 164.5 132C159.09 132 154.699 136.395 154.699 141.801C154.699 146.357 157.838 150.155 162.047 151.259V173.204L160.604 171.728C156.307 167.354 150.803 164.693 144.898 164.042V158.953C144.898 153.543 140.503 149.153 135.097 149.153H120.051C118.952 144.939 115.153 141.801 110.597 141.801C105.192 141.801 100.797 146.196 100.797 151.602C100.797 157.008 105.192 161.403 110.597 161.403C115.153 161.403 118.952 158.264 120.051 154.051H135.097C137.796 154.051 140 156.255 140 158.953V163.966C133.693 164.406 127.788 167.105 123.211 171.728C114.895 180.179 113.326 192.945 118.482 203.051H110.255C109.151 198.842 105.352 195.703 100.797 195.703C95.3907 195.703 91 200.094 91 205.5C91 210.91 95.3907 215.301 100.797 215.301C105.352 215.301 109.151 212.162 110.255 207.953H121.727C122.209 208.516 122.687 209.083 123.211 209.616L137.547 224.192V249.602C137.547 252.3 135.347 254.5 132.648 254.5H117.602C116.503 250.291 112.704 247.153 108.148 247.153C102.742 247.153 98.3475 251.543 98.3475 256.953C98.3475 262.359 102.742 266.75 108.148 266.75C112.704 266.75 116.503 263.611 117.602 259.403H132.648C138.054 259.403 142.449 255.008 142.449 249.602V229.171L161.167 248.206C161.438 248.472 161.734 248.692 162.047 248.895V259.745C157.838 260.849 154.699 264.648 154.699 269.203C154.699 274.609 159.09 279 164.5 279C169.906 279 174.297 274.609 174.297 269.203C174.297 264.648 171.158 260.849 166.949 259.745V248.895C167.262 248.692 167.563 248.472 167.829 248.206L184.097 231.667V252.051C184.097 257.461 188.492 261.852 193.898 261.852H208.944C210.044 266.065 213.843 269.203 218.398 269.203C223.804 269.203 228.199 264.808 228.199 259.403C228.199 253.997 223.804 249.602 218.398 249.602C213.843 249.602 210.044 252.74 208.944 256.953H193.898C191.2 256.953 189 254.75 189 252.051V226.679L205.785 209.616C206.309 209.083 206.8 208.516 207.278 207.953H218.741C219.845 212.162 223.643 215.301 228.199 215.301C233.605 215.301 238 210.91 238 205.5C238 200.094 233.605 195.703 228.199 195.703Z" fill="#B5DF9C"/>
</g>
<path d="M177.002 210.43H169.5C168.123 210.43 167.001 211.52 167.001 212.857V220.145H161.999V212.857C161.999 211.52 160.877 210.43 159.5 210.43H152.002V205.57H159.5C160.877 205.57 161.999 204.48 161.999 203.143V195.86H167.001V203.143C167.001 204.48 168.123 205.57 169.5 205.57L177.002 205.562V210.43ZM177.002 200.715H171.999V195.86C171.999 193.184 169.755 191 167.001 191H161.999C159.245 191 157.001 193.184 157.001 195.86V200.715H152.002C149.244 200.715 147 202.895 147 205.57V210.43C147 213.105 149.244 215.285 152.002 215.285H157.001V220.145C157.001 222.82 159.245 225 161.999 225H167.001C169.755 225 171.999 222.82 171.999 220.145V215.285H177.002C179.756 215.285 182 213.105 182 210.43V205.57C182 202.895 179.756 200.715 177.002 200.715Z" fill="#B5DF9C"/>
</svg>
