<svg width="330" height="346" viewBox="0 0 330 346" fill="none" xmlns="http://www.w3.org/2000/svg">
<mask id="mask0_797_184" style="mask-type:luminance" maskUnits="userSpaceOnUse" x="313" y="18" width="17" height="302">
<path d="M313.918 18.1064H329.996V319.462H313.918V18.1064Z" fill="white"/>
</mask>
<g mask="url(#mask0_797_184)">
<path d="M313.99 319.453H329.976V18.2051H313.99V319.453Z" fill="#99FF52"/>
<path d="M313.99 319.453H329.976V18.2051H313.99V319.453Z" fill="#99FF52"/>
</g>
<mask id="mask1_797_184" style="mask-type:luminance" maskUnits="userSpaceOnUse" x="230" y="321" width="100" height="10">
<path d="M230.465 321.616H330V330.667H230.465V321.616Z" fill="white"/>
</mask>
<g mask="url(#mask1_797_184)">
<path d="M330.001 321.848L323.243 330.332H230.6L237.474 321.702L330.001 321.848Z" fill="#99FF52"/>
</g>
<path d="M291.85 330.332L287.082 336.314H189.38L184.488 330.173L291.85 330.332Z" fill="#99FF52"/>
<path d="M184.467 26.53L191.225 18.0464H283.868L276.993 26.6762L184.467 26.53Z" fill="#99FF52"/>
<mask id="mask2_797_184" style="mask-type:luminance" maskUnits="userSpaceOnUse" x="222" y="11" width="108" height="8">
<path d="M222.564 11.6396H329.998V18.5409H222.564V11.6396Z" fill="white"/>
</mask>
<g mask="url(#mask2_797_184)">
<path d="M222.619 18.0465L227.384 12.0654H325.086L329.977 18.2056L222.619 18.0465Z" fill="#99FF52"/>
</g>
<mask id="mask3_797_184" style="mask-type:luminance" maskUnits="userSpaceOnUse" x="0" y="4" width="133" height="138">
<path d="M0 4.38135H132.712V141.977H0V4.38135Z" fill="white"/>
</mask>
<g mask="url(#mask3_797_184)">
<path d="M131.886 16.4642L123.943 26.4313H11.82L11.7961 141.809L6.7575 135.484V73.2352L0.0234375 64.786V25.4466L8.02142 13.5919H65.9563L72.8239 4.9707H101.606L110.916 16.4642H131.886Z" fill="#99FF52"/>
</g>
<mask id="mask4_797_184" style="mask-type:luminance" maskUnits="userSpaceOnUse" x="73" y="0" width="163" height="14">
<path d="M73.9609 0H235.304V13.1877H73.9609V0Z" fill="white"/>
</mask>
<g mask="url(#mask4_797_184)">
<path d="M234.167 12.9598H114.174L114.026 12.7792L104.843 1.24696H74.8175C74.5434 1.24696 74.3242 0.971767 74.3242 0.623479C74.3242 0.279491 74.5434 0 74.8175 0H105.258L105.405 0.180594L114.585 11.7085H234.167C234.445 11.7085 234.664 11.988 234.664 12.332C234.664 12.6803 234.445 12.9598 234.167 12.9598Z" fill="#99FF52"/>
</g>
<path d="M238.168 332.723H11.2482C10.1966 332.723 9.34375 331.657 9.34375 330.332V82.695C9.34375 81.375 10.1966 80.3086 11.2482 80.3086C12.2998 80.3086 13.1526 81.375 13.1526 82.695V327.946H238.168C239.22 327.946 240.069 329.012 240.069 330.332C240.069 331.657 239.22 332.723 238.168 332.723Z" fill="#99FF52"/>
<path d="M11.2481 132.079L16.2593 125.788V58.8481L11.207 52.5059L11.2481 132.079Z" fill="#99FF52"/>
<path d="M10.008 41.7514L24.466 23.606H8.32617L10.008 41.7514Z" fill="#99FF52"/>
<mask id="mask5_797_184" style="mask-type:luminance" maskUnits="userSpaceOnUse" x="0" y="99" width="165" height="247">
<path d="M0.302734 99.0469H164.277V345.089H0.302734V99.0469Z" fill="white"/>
</mask>
<g mask="url(#mask5_797_184)">
<path d="M95.1514 344.896H10.9345L0.648438 331.975V112.652L10.544 100.221C10.8043 99.8984 11.2222 99.8984 11.4791 100.221C11.7394 100.548 11.7394 101.072 11.4791 101.395L1.96716 113.335V331.295L11.4825 343.236H94.5999L97.6553 339.392H155.34L163.03 329.747C163.287 329.425 163.708 329.425 163.965 329.747C164.222 330.07 164.222 330.599 163.965 330.921L155.885 341.056H98.2067L95.1514 344.896Z" fill="#99FF52"/>
</g>
<path d="M315.633 163.721C315.465 163.721 315.294 163.64 315.167 163.476L307.995 154.472V114.217L310.917 110.549V57.9235L308.029 54.2987V27.0204L304.457 22.5356H276.661C276.294 22.5356 275.996 22.1615 275.996 21.7015C275.996 21.2457 276.294 20.8716 276.661 20.8716H305.001L309.351 26.3324V53.615L312.239 57.2398V111.233L309.32 114.901V153.789L316.102 162.303C316.359 162.629 316.359 163.154 316.102 163.476C315.972 163.64 315.804 163.721 315.633 163.721Z" fill="#99FF52"/>
<path d="M223.768 319.535H228.929V326.015H223.768V319.535Z" fill="#99FF52"/>
<path d="M217.068 319.535H222.234V326.015H217.068V319.535Z" fill="#99FF52"/>
<path d="M210.373 319.535H215.538V326.015H210.373V319.535Z" fill="#99FF52"/>
<path d="M203.674 319.535H208.839V326.015H203.674V319.535Z" fill="#99FF52"/>
<path d="M196.98 319.535H202.142V326.015H196.98V319.535Z" fill="#99FF52"/>
<path d="M190.279 319.535H195.445V326.015H190.279V319.535Z" fill="#99FF52"/>
<path d="M183.584 319.535H188.749V326.015H183.584V319.535Z" fill="#99FF52"/>
<path d="M176.887 319.535H182.052V326.015H176.887V319.535Z" fill="#99FF52"/>
<path d="M170.191 319.535H175.353V326.015H170.191V319.535Z" fill="#99FF52"/>
<path d="M163.492 319.535H168.657V326.015H163.492V319.535Z" fill="#99FF52"/>
<path d="M156.795 319.535H161.96V326.015H156.795V319.535Z" fill="#99FF52"/>
<path d="M150.098 319.535H155.263V326.015H150.098V319.535Z" fill="#99FF52"/>
<path d="M143.4 319.535H148.566V326.015H143.4V319.535Z" fill="#99FF52"/>
<path d="M136.705 319.535H141.867V326.015H136.705V319.535Z" fill="#99FF52"/>
<path d="M130.006 319.535H135.171V326.015H130.006V319.535Z" fill="#99FF52"/>
<path d="M123.309 319.535H128.474V326.015H123.309V319.535Z" fill="#99FF52"/>
<path d="M116.613 319.535H121.779V326.015H116.613V319.535Z" fill="#99FF52"/>
<path d="M109.918 319.535H115.08V326.015H109.918V319.535Z" fill="#99FF52"/>
<path d="M103.221 319.535H108.383V326.015H103.221V319.535Z" fill="#99FF52"/>
<path d="M96.5215 319.535H101.687V326.015H96.5215V319.535Z" fill="#99FF52"/>
<path d="M89.8242 319.535H94.9895V326.015H89.8242V319.535Z" fill="#99FF52"/>
<path d="M83.127 319.535H88.2888V326.015H83.127V319.535Z" fill="#99FF52"/>
<path d="M76.4316 319.535H81.5935V326.015H76.4316V319.535Z" fill="#99FF52"/>
<path d="M69.7305 319.535H74.8958V326.015H69.7305V319.535Z" fill="#99FF52"/>
<path d="M63.0352 319.535H68.2004V326.015H63.0352V319.535Z" fill="#99FF52"/>
<path d="M56.3379 319.535H61.4998V326.015H56.3379V319.535Z" fill="#99FF52"/>
<path d="M49.6426 319.535H54.8044V326.015H49.6426V319.535Z" fill="#99FF52"/>
<path d="M42.9434 319.535H48.1087V326.015H42.9434V319.535Z" fill="#99FF52"/>
<path d="M36.2461 319.535H41.4114V326.015H36.2461V319.535Z" fill="#99FF52"/>
<path d="M29.5488 319.535H34.7141V326.015H29.5488V319.535Z" fill="#99FF52"/>
<path d="M22.8516 319.535H28.0134V326.015H22.8516V319.535Z" fill="#99FF52"/>
<path d="M16.1562 319.535H21.3181V326.015H16.1562V319.535Z" fill="#99FF52"/>
<path d="M9.76101 59.8714C9.27462 59.8714 8.78824 59.6392 8.41488 59.1749C7.6716 58.2418 7.6716 56.7282 8.41488 55.7952L25.9762 33.7455C26.3324 33.2983 26.8188 33.0489 27.3223 33.0489H95.9783L105.829 20.6696C106.189 20.2224 106.672 19.9688 107.179 19.9688H206.532C207.584 19.9688 208.433 21.0394 208.433 22.3595C208.433 23.6795 207.584 24.7459 206.532 24.7459H107.963L98.1088 37.1252C97.7525 37.5724 97.2662 37.8218 96.7626 37.8218H28.1101L11.1071 59.1749C10.7338 59.6392 10.2474 59.8714 9.76101 59.8714Z" fill="#99FF52"/>
<path d="M73.5539 89V85.64H76.0739V69.48H73.5539V66.12H83.5539L89.4739 79.76L95.1939 66.12H104.954V69.48H102.394V85.64H104.954V89H94.6739V85.64H97.1539V70.92L89.9539 88H87.7139L80.3939 70.92V85.64H82.8739V89H73.5539ZM106.675 89V85.64H109.235L115.195 69.48H112.835V66.12H126.955V69.48H124.595L130.675 85.64H133.115V89H122.315V85.64H125.035L123.395 80.64H115.875L114.195 85.64H116.715V89H106.675ZM116.835 77.44H122.395L119.795 69.52H119.595L116.835 77.44ZM147.393 89.44C145.553 89.44 143.86 89.16 142.313 88.6C140.793 88.04 139.46 87.24 138.313 86.2C137.167 85.16 136.287 83.92 135.673 82.48C135.06 81.0133 134.753 79.3733 134.753 77.56C134.753 75.1867 135.273 73.1067 136.313 71.32C137.353 69.5333 138.78 68.16 140.593 67.2C142.433 66.2133 144.54 65.72 146.913 65.72C148.513 65.72 149.927 65.96 151.153 66.44C152.407 66.8933 153.433 67.56 154.233 68.44C155.033 69.2933 155.58 70.28 155.873 71.4L154.553 70.68V66.12H158.273V73.8L155.073 73.84C154.327 72.3733 153.38 71.2933 152.233 70.6C151.113 69.88 149.727 69.52 148.073 69.52C146.473 69.52 145.1 69.8667 143.953 70.56C142.833 71.2267 141.953 72.16 141.313 73.36C140.7 74.56 140.393 75.9333 140.393 77.48C140.393 78.7067 140.567 79.8133 140.913 80.8C141.287 81.7867 141.793 82.64 142.433 83.36C143.1 84.08 143.873 84.64 144.753 85.04C145.66 85.4133 146.647 85.6 147.713 85.6C148.833 85.6 149.847 85.4133 150.753 85.04C151.66 84.64 152.433 84.0533 153.073 83.28C153.74 82.48 154.247 81.48 154.593 80.28L158.833 81.92C158.353 83.5467 157.58 84.92 156.513 86.04C155.473 87.1333 154.18 87.9733 152.633 88.56C151.087 89.12 149.34 89.4133 147.393 89.44ZM161.764 89V85.64H164.364V69.48H161.764V66.12H172.444V69.48H169.844V75.68H179.324V69.48H176.724V66.12H187.404V69.48H184.804V85.64H187.404V89H176.724V85.64H179.324V78.96H169.844V85.64H172.444V89H161.764ZM190.145 89V85.64H192.745V69.48H190.145V66.12H200.865V69.48H198.225V85.64H200.865V89H190.145ZM203.671 89V85.64H206.311V69.48H203.671V66.12H212.671L223.511 82.04V69.48H220.711V66.12H229.911V69.48H227.311V89H221.791L210.031 71.68V85.64H212.831V89H203.671ZM231.967 89V85.64H234.567V69.48H231.967V66.12H253.007V73.6H249.447V69.48H240.087V75.6H244.887V73.2H247.647V81.32H244.927V78.84H240.087V85.6H249.607V81.2H253.207V89H231.967ZM66.0334 119V115.64H68.6334V99.28H66.0334V96.12H76.7134V99.28H74.1134V115.64H81.5534V109.24H85.3934V119H66.0334ZM87.1038 119V115.64H89.7038V99.48H87.1038V96.12H108.144V103.6H104.584V99.48H95.2238V105.6H100.024V103.2H102.784V111.32H100.064V108.84H95.2238V115.6H104.744V111.2H108.344V119H87.1038ZM110.343 119V115.64H112.903L118.863 99.48H116.503V96.12H130.623V99.48H128.263L134.343 115.64H136.783V119H125.983V115.64H128.703L127.063 110.64H119.543L117.863 115.64H120.383V119H110.343ZM120.503 107.44H126.063L123.463 99.52H123.263L120.503 107.44ZM138.541 119V115.64H141.141V99.48H138.541V96.12H151.741C153.501 96.12 155.048 96.3467 156.381 96.8C157.715 97.2533 158.755 97.96 159.501 98.92C160.248 99.8533 160.621 101.08 160.621 102.6C160.621 103.64 160.435 104.573 160.061 105.4C159.688 106.2 159.115 106.88 158.341 107.44C157.595 107.973 156.648 108.387 155.501 108.68L159.781 115.6H162.501V119H155.821L150.221 109.28H148.141V105.84H151.221C152.181 105.84 152.928 105.693 153.461 105.4C154.021 105.08 154.421 104.667 154.661 104.16C154.901 103.653 155.021 103.107 155.021 102.52C155.021 101.933 154.888 101.413 154.621 100.96C154.381 100.507 153.995 100.147 153.461 99.88C152.955 99.6133 152.315 99.48 151.541 99.48H146.621V115.64H149.141V119H138.541ZM164.534 119V115.64H167.174V99.48H164.534V96.12H173.534L184.374 112.04V99.48H181.574V96.12H190.774V99.48H188.174V119H182.654L170.894 101.68V115.64H173.694V119H164.534ZM193.07 119V115.64H195.67V99.48H193.07V96.12H203.79V99.48H201.15V115.64H203.79V119H193.07ZM206.597 119V115.64H209.237V99.48H206.597V96.12H215.597L226.437 112.04V99.48H223.637V96.12H232.837V99.48H230.237V119H224.717L212.957 101.68V115.64H215.757V119H206.597ZM247.653 119.4C245.039 119.4 242.759 118.907 240.813 117.92C238.893 116.907 237.399 115.52 236.333 113.76C235.266 111.973 234.733 109.907 234.733 107.56C234.733 105.213 235.253 103.147 236.293 101.36C237.359 99.5733 238.813 98.1867 240.653 97.2C242.519 96.2133 244.679 95.72 247.133 95.72C249.586 95.72 251.586 96.24 253.133 97.28C254.679 98.32 255.733 99.6533 256.293 101.28L254.813 100.68V96.12H258.653V103.88H255.333C254.639 102.467 253.706 101.387 252.533 100.64C251.359 99.8933 249.919 99.52 248.213 99.52C246.666 99.52 245.306 99.84 244.133 100.48C242.986 101.093 242.093 102 241.453 103.2C240.839 104.373 240.533 105.787 240.533 107.44C240.533 109.12 240.826 110.573 241.413 111.8C242.026 113 242.879 113.933 243.973 114.6C245.093 115.24 246.399 115.56 247.893 115.56C248.826 115.56 249.693 115.44 250.493 115.2C251.293 114.96 251.986 114.6 252.573 114.12C253.159 113.613 253.613 112.987 253.933 112.24C254.253 111.493 254.413 110.613 254.413 109.6L256.493 110.28H250.093V106.84H259.693V108.32C259.693 110.133 259.399 111.733 258.813 113.12C258.253 114.48 257.439 115.627 256.373 116.56C255.306 117.493 254.026 118.2 252.533 118.68C251.066 119.16 249.439 119.4 247.653 119.4Z" fill="white"/>
<mask id="mask6_797_184" style="mask-type:luminance" maskUnits="userSpaceOnUse" x="97" y="151" width="133" height="125">
<path d="M97 151H230V275.755H97V151Z" fill="white"/>
</mask>
<g mask="url(#mask6_797_184)">
<path d="M229.784 220.422L220.863 204.053C221.278 201.359 221.693 198.664 221.693 195.97C221.693 171.102 201.569 151 176.676 151C165.681 151 155.101 154.939 147.01 162.189H125.021C124.397 162.189 123.982 162.398 123.777 162.813L110.499 183.536H98.88C97.8448 183.536 97.2207 184.366 97.2207 185.195C97.2207 186.021 97.8448 186.851 98.88 186.851H111.328C111.952 186.851 112.367 186.645 112.573 186.23L125.851 165.508H165.887L175.016 169.443C175.016 169.652 175.016 170.067 175.016 170.273C175.016 173.588 177.711 176.077 180.824 176.077C184.142 176.077 186.631 173.382 186.631 170.273C186.631 167.163 183.937 164.469 180.824 164.469C178.955 164.469 177.296 165.299 176.261 166.749L166.716 162.604C166.511 162.604 166.301 162.398 166.096 162.398H151.783C158.835 157.219 167.546 154.315 176.466 154.315C199.495 154.315 218.371 173.173 218.371 196.179C218.371 198.87 218.165 201.564 217.541 204.259C217.541 204.674 217.541 205.294 217.956 205.503L226.047 220.217L214.847 224.567C214.223 224.776 213.808 225.396 213.808 226.02V247.778H196.796C195.967 247.778 195.137 248.399 195.137 249.438V263.116H156.346V233.48C156.346 232.859 156.136 232.445 155.516 232.235C151.988 230.165 149.294 228.091 146.596 225.191H159.249L170.038 241.563C170.244 241.974 170.868 242.184 171.283 242.184H179.579C180.203 244.669 182.483 246.534 185.181 246.534C188.5 246.534 190.989 243.843 190.989 240.734C190.989 237.624 188.291 234.93 185.181 234.93C182.483 234.93 180.203 236.795 179.579 239.284H172.113L162.777 225.396H177.09C177.711 227.885 179.994 229.75 182.692 229.75C186.011 229.75 188.5 227.056 188.5 223.946C188.5 220.631 185.802 218.142 182.692 218.142C179.994 218.142 177.711 220.011 177.09 222.496H124.812L110.499 201.979C110.293 201.149 109.878 200.944 109.254 200.944H98.88C97.8448 200.944 97.2207 201.564 97.2207 202.394C97.2207 203.224 97.8448 204.053 98.88 204.053H108.63L122.947 224.567C123.153 224.981 123.777 225.191 124.191 225.191H142.653C145.971 229.126 149.294 232.03 153.442 234.515V263.116C150.123 263.116 147.216 266.016 147.216 269.331C147.216 272.855 150.123 275.755 153.648 275.755H198.456C201.983 275.755 204.887 272.855 204.887 269.331C204.887 265.807 202.193 263.116 198.665 263.116V251.093H215.467C216.297 251.093 217.126 250.473 217.126 249.438V227.261L228.951 222.702C229.369 222.496 229.784 222.291 229.784 221.876C229.989 221.252 229.989 220.837 229.784 220.422ZM180.824 167.373C182.278 167.373 183.522 168.613 183.522 170.067C183.522 171.517 182.278 172.762 180.824 172.762C179.374 172.762 178.126 171.517 178.126 170.067C178.126 168.613 179.374 167.373 180.824 167.373ZM185.387 237.624C186.841 237.624 188.085 238.869 188.085 240.319C188.085 241.769 186.841 243.013 185.387 243.013C183.937 243.013 182.692 241.769 182.692 240.319C182.692 238.869 183.937 237.624 185.387 237.624ZM182.898 220.837C184.352 220.837 185.596 222.081 185.596 223.531C185.596 224.981 184.352 226.226 182.898 226.226C181.448 226.226 180.203 224.981 180.203 223.531C180.203 222.081 181.448 220.837 182.898 220.837ZM201.363 269.331C201.363 271.196 199.909 272.646 198.041 272.646H153.442C151.573 272.646 150.123 271.196 150.123 269.331C150.123 267.466 151.573 266.016 153.442 266.016H198.25C199.909 266.221 201.363 267.671 201.363 269.331Z" fill="#B5DF9C"/>
</g>
<path d="M210.64 196.34C210.64 197.17 211.272 198 212.32 198C213.16 198 214 197.376 214 196.34C214 183.281 206.861 170.843 195.31 164.207C194.47 163.792 193.63 164.001 193.21 164.828C192.791 165.658 192.999 166.488 193.839 166.903C203.921 172.914 210.64 184.317 210.64 196.34Z" fill="#B5DF9C"/>
<path d="M191.848 164.062C192.235 163.218 191.848 162.374 191.074 161.955C187.973 160.476 184.876 159.635 181.587 159C180.812 159 180.038 159.422 180.038 160.267C179.843 161.111 180.425 161.955 181.2 161.955C184.297 162.374 187.199 163.218 189.912 164.694C190.687 165.329 191.461 164.907 191.848 164.062Z" fill="#B5DF9C"/>
<path d="M125.5 240C119.713 240 115 244.734 115 250.5C115 256.266 119.713 261 125.5 261C131.287 261 136 256.266 136 250.5C136 244.734 131.287 240 125.5 240ZM125.5 257.911C121.427 257.911 118.212 254.618 118.212 250.5C118.212 246.382 121.427 243.089 125.5 243.089C129.573 243.089 132.784 246.382 132.784 250.5C132.784 254.618 129.573 257.911 125.5 257.911Z" fill="#B5DF9C"/>
<path d="M145.772 255.766C146.591 255.557 147 254.936 147 254.316V247.684C147 246.854 146.388 246.234 145.772 246.234L142.705 245.614C142.295 244.37 141.886 243.125 141.27 241.885L143.114 238.982C143.523 238.361 143.523 237.532 142.907 237.117L138.406 232.353C137.79 231.729 136.972 231.729 136.359 232.144L133.698 234.008C132.676 233.388 131.448 232.973 130.221 232.559L129.605 229.244C129.402 228.415 128.786 228 128.171 228H121.829C121.011 228 120.395 228.624 120.395 229.244L119.783 232.353C118.552 232.768 117.53 233.182 116.302 233.803L113.641 231.938C113.028 231.523 112.21 231.523 111.594 232.144L107.093 236.912C106.683 237.532 106.477 238.152 106.886 238.776L108.73 241.676C108.114 242.92 107.705 244.164 107.295 245.405L104.228 246.029C103.409 246.234 103 246.854 103 247.478V254.107C103 254.936 103.612 255.557 104.228 255.557L107.502 256.386C107.911 257.63 108.32 258.875 108.932 260.115L107.093 263.018C106.683 263.639 106.683 264.468 107.295 264.883L111.801 269.647C112.413 270.267 113.231 270.267 113.847 269.856L116.505 267.988C117.53 268.612 118.758 269.027 119.986 269.441L120.601 272.756C120.804 273.585 121.42 274 122.032 274H128.377C129.196 274 129.811 273.376 129.811 272.756L130.423 269.441C131.651 269.027 132.676 268.612 133.904 267.988L136.562 269.856C137.178 270.267 137.996 270.267 138.609 269.647L143.114 264.883C143.523 264.259 143.726 263.639 143.317 263.018L141.477 260.115C142.089 258.875 142.498 257.63 142.907 256.386L145.772 255.766ZM141.068 253.487C140.452 253.692 140.043 254.107 139.84 254.731C139.431 256.386 138.815 257.836 137.996 259.495C137.79 259.91 137.79 260.739 137.996 261.154L139.633 263.639L136.972 266.538L134.516 264.883C133.904 264.468 133.288 264.468 132.879 264.883C131.448 265.709 130.014 266.333 128.58 266.747C127.968 266.953 127.559 267.368 127.352 267.988L126.74 271.097H123.057L122.441 267.988C122.238 267.368 121.829 266.953 121.214 266.747C119.577 266.333 118.142 265.709 116.712 264.883C116.096 264.468 115.484 264.468 115.075 264.883L112.822 266.538L110.164 263.639L111.801 260.945C112.21 260.53 112.21 259.7 111.801 259.286C110.982 257.836 110.367 256.181 109.957 254.522C109.754 253.901 109.345 253.487 108.73 253.277L105.865 252.657V248.513L108.73 247.893C109.345 247.684 109.754 247.269 109.957 246.649C110.367 244.99 110.982 243.54 111.801 241.885C112.004 241.47 112.004 240.641 111.801 240.226L110.164 237.532L112.822 234.632L115.278 236.288C115.893 236.702 116.505 236.702 116.915 236.288C118.349 235.462 119.783 234.838 121.42 234.423C122.032 234.218 122.441 233.803 122.648 233.182L123.26 230.074H126.943L127.559 233.182C127.762 233.803 128.171 234.218 128.786 234.423C130.423 234.838 131.858 235.462 133.085 236.288C133.698 236.702 134.313 236.702 134.722 236.288L137.178 234.632L139.84 237.532L138.199 240.641C137.79 241.055 137.79 241.676 138.199 242.296C139.021 243.749 139.633 245.405 140.043 247.064C140.249 247.684 140.658 248.099 141.27 248.308L144.135 248.928V253.072L141.068 253.487Z" fill="#B5DF9C"/>
<path d="M148.907 178.319C149.534 180.827 151.826 182.708 154.538 182.708C157.874 182.708 160.377 179.99 160.377 176.852C160.377 173.719 157.664 171 154.538 171C151.826 171 149.534 172.882 148.907 175.389H130.348C129.931 175.389 129.304 175.6 129.097 176.019L117.207 192.954V193.165V193.372C117.207 193.583 117 193.791 117 194.002C117 194.209 117 194.417 117.207 194.628V194.835V195.046L129.097 211.981C129.304 212.4 129.931 212.611 130.348 212.611H188.53C189.154 215.118 191.449 217 194.162 217C197.498 217 200 214.281 200 211.148C200 207.799 197.288 205.292 194.162 205.292C191.449 205.292 189.154 207.173 188.53 209.681H161.838L171.012 195.883H178.518C179.146 198.391 181.441 200.273 184.15 200.273C187.486 200.273 189.992 197.554 189.992 194.417C189.992 191.283 187.279 188.564 184.15 188.564C181.441 188.564 179.146 190.446 178.518 192.954H170.178C169.554 192.954 169.137 193.165 168.927 193.583L158.081 209.055H131.182L121.587 195.254H144.526C145.154 197.765 147.446 199.647 150.158 199.647C153.494 199.647 155.996 196.928 155.996 193.791C155.996 190.653 153.287 187.935 150.158 187.935C147.446 187.935 145.154 189.816 144.526 192.328H121.587L131.182 178.527H148.907V178.319ZM154.538 174.137C155.996 174.137 157.247 175.389 157.247 176.852C157.247 178.319 155.996 179.571 154.538 179.571C153.077 179.571 151.826 178.319 151.826 176.852C151.826 175.389 153.077 174.137 154.538 174.137ZM184.36 190.865C185.818 190.865 187.069 192.117 187.069 193.583C187.069 195.046 185.818 196.298 184.36 196.298C182.899 196.298 181.648 195.046 181.648 193.583C181.441 192.117 182.692 190.865 184.36 190.865ZM194.162 207.799C195.62 207.799 196.871 209.055 196.871 210.518C196.871 211.981 195.62 213.237 194.162 213.237C192.7 213.237 191.449 211.981 191.449 210.518C191.243 209.055 192.494 207.799 194.162 207.799ZM150.158 190.865C151.619 190.865 152.87 192.117 152.87 193.583C152.87 195.046 151.619 196.298 150.158 196.298C148.697 196.298 147.446 195.046 147.446 193.583C147.446 192.117 148.697 190.865 150.158 190.865Z" fill="#B5DF9C"/>
<path d="M112.435 196C113.218 196 114 195.251 114 194.002C114 193.001 113.412 192 112.435 192H106.565C105.782 192 105 192.749 105 194.002C105 194.999 105.588 196 106.565 196H112.435Z" fill="#B5DF9C"/>
</svg>
