<svg width="330" height="346" viewBox="0 0 330 346" fill="none" xmlns="http://www.w3.org/2000/svg">
<mask id="mask0_797_188" style="mask-type:luminance" maskUnits="userSpaceOnUse" x="313" y="18" width="17" height="302">
<path d="M313.918 18.1064H329.996V319.462H313.918V18.1064Z" fill="white"/>
</mask>
<g mask="url(#mask0_797_188)">
<path d="M313.99 319.453H329.976V18.2051H313.99V319.453Z" fill="#99FF52"/>
<path d="M313.99 319.453H329.976V18.2051H313.99V319.453Z" fill="#99FF52"/>
</g>
<mask id="mask1_797_188" style="mask-type:luminance" maskUnits="userSpaceOnUse" x="230" y="321" width="100" height="10">
<path d="M230.465 321.616H330V330.667H230.465V321.616Z" fill="white"/>
</mask>
<g mask="url(#mask1_797_188)">
<path d="M330.001 321.848L323.243 330.332H230.6L237.474 321.702L330.001 321.848Z" fill="#99FF52"/>
</g>
<path d="M291.85 330.332L287.082 336.314H189.38L184.488 330.173L291.85 330.332Z" fill="#99FF52"/>
<path d="M184.467 26.53L191.225 18.0464H283.868L276.993 26.6762L184.467 26.53Z" fill="#99FF52"/>
<mask id="mask2_797_188" style="mask-type:luminance" maskUnits="userSpaceOnUse" x="222" y="11" width="108" height="8">
<path d="M222.564 11.6396H329.998V18.5409H222.564V11.6396Z" fill="white"/>
</mask>
<g mask="url(#mask2_797_188)">
<path d="M222.619 18.0465L227.384 12.0654H325.086L329.977 18.2056L222.619 18.0465Z" fill="#99FF52"/>
</g>
<mask id="mask3_797_188" style="mask-type:luminance" maskUnits="userSpaceOnUse" x="0" y="4" width="133" height="138">
<path d="M0 4.38135H132.712V141.977H0V4.38135Z" fill="white"/>
</mask>
<g mask="url(#mask3_797_188)">
<path d="M131.886 16.4642L123.943 26.4313H11.82L11.7961 141.809L6.7575 135.484V73.2352L0.0234375 64.786V25.4466L8.02142 13.5919H65.9563L72.8239 4.9707H101.606L110.916 16.4642H131.886Z" fill="#99FF52"/>
</g>
<mask id="mask4_797_188" style="mask-type:luminance" maskUnits="userSpaceOnUse" x="73" y="0" width="163" height="14">
<path d="M73.9609 0H235.304V13.1877H73.9609V0Z" fill="white"/>
</mask>
<g mask="url(#mask4_797_188)">
<path d="M234.167 12.9598H114.174L114.026 12.7792L104.843 1.24696H74.8175C74.5434 1.24696 74.3242 0.971767 74.3242 0.623479C74.3242 0.279491 74.5434 0 74.8175 0H105.258L105.405 0.180594L114.585 11.7085H234.167C234.445 11.7085 234.664 11.988 234.664 12.332C234.664 12.6803 234.445 12.9598 234.167 12.9598Z" fill="#99FF52"/>
</g>
<path d="M238.168 332.723H11.2482C10.1966 332.723 9.34375 331.657 9.34375 330.332V82.695C9.34375 81.375 10.1966 80.3086 11.2482 80.3086C12.2998 80.3086 13.1526 81.375 13.1526 82.695V327.946H238.168C239.22 327.946 240.069 329.012 240.069 330.332C240.069 331.657 239.22 332.723 238.168 332.723Z" fill="#99FF52"/>
<path d="M11.2481 132.079L16.2593 125.788V58.8481L11.207 52.5059L11.2481 132.079Z" fill="#99FF52"/>
<path d="M10.008 41.7514L24.466 23.606H8.32617L10.008 41.7514Z" fill="#99FF52"/>
<mask id="mask5_797_188" style="mask-type:luminance" maskUnits="userSpaceOnUse" x="0" y="99" width="165" height="247">
<path d="M0.302734 99.0469H164.277V345.089H0.302734V99.0469Z" fill="white"/>
</mask>
<g mask="url(#mask5_797_188)">
<path d="M95.1514 344.896H10.9345L0.648438 331.975V112.652L10.544 100.221C10.8043 99.8984 11.2222 99.8984 11.4791 100.221C11.7394 100.548 11.7394 101.072 11.4791 101.395L1.96716 113.335V331.295L11.4825 343.236H94.5999L97.6553 339.392H155.34L163.03 329.747C163.287 329.425 163.708 329.425 163.965 329.747C164.222 330.07 164.222 330.599 163.965 330.921L155.885 341.056H98.2067L95.1514 344.896Z" fill="#99FF52"/>
</g>
<path d="M315.633 163.721C315.465 163.721 315.294 163.64 315.167 163.476L307.995 154.472V114.217L310.917 110.549V57.9235L308.029 54.2987V27.0204L304.457 22.5356H276.661C276.294 22.5356 275.996 22.1615 275.996 21.7015C275.996 21.2457 276.294 20.8716 276.661 20.8716H305.001L309.351 26.3324V53.615L312.239 57.2398V111.233L309.32 114.901V153.789L316.102 162.303C316.359 162.629 316.359 163.154 316.102 163.476C315.972 163.64 315.804 163.721 315.633 163.721Z" fill="#99FF52"/>
<path d="M223.768 319.535H228.929V326.015H223.768V319.535Z" fill="#99FF52"/>
<path d="M217.068 319.535H222.234V326.015H217.068V319.535Z" fill="#99FF52"/>
<path d="M210.373 319.535H215.538V326.015H210.373V319.535Z" fill="#99FF52"/>
<path d="M203.674 319.535H208.839V326.015H203.674V319.535Z" fill="#99FF52"/>
<path d="M196.98 319.535H202.142V326.015H196.98V319.535Z" fill="#99FF52"/>
<path d="M190.279 319.535H195.445V326.015H190.279V319.535Z" fill="#99FF52"/>
<path d="M183.584 319.535H188.749V326.015H183.584V319.535Z" fill="#99FF52"/>
<path d="M176.887 319.535H182.052V326.015H176.887V319.535Z" fill="#99FF52"/>
<path d="M170.191 319.535H175.353V326.015H170.191V319.535Z" fill="#99FF52"/>
<path d="M163.492 319.535H168.657V326.015H163.492V319.535Z" fill="#99FF52"/>
<path d="M156.795 319.535H161.96V326.015H156.795V319.535Z" fill="#99FF52"/>
<path d="M150.098 319.535H155.263V326.015H150.098V319.535Z" fill="#99FF52"/>
<path d="M143.4 319.535H148.566V326.015H143.4V319.535Z" fill="#99FF52"/>
<path d="M136.705 319.535H141.867V326.015H136.705V319.535Z" fill="#99FF52"/>
<path d="M130.006 319.535H135.171V326.015H130.006V319.535Z" fill="#99FF52"/>
<path d="M123.309 319.535H128.474V326.015H123.309V319.535Z" fill="#99FF52"/>
<path d="M116.613 319.535H121.779V326.015H116.613V319.535Z" fill="#99FF52"/>
<path d="M109.918 319.535H115.08V326.015H109.918V319.535Z" fill="#99FF52"/>
<path d="M103.221 319.535H108.383V326.015H103.221V319.535Z" fill="#99FF52"/>
<path d="M96.5215 319.535H101.687V326.015H96.5215V319.535Z" fill="#99FF52"/>
<path d="M89.8242 319.535H94.9895V326.015H89.8242V319.535Z" fill="#99FF52"/>
<path d="M83.127 319.535H88.2888V326.015H83.127V319.535Z" fill="#99FF52"/>
<path d="M76.4316 319.535H81.5935V326.015H76.4316V319.535Z" fill="#99FF52"/>
<path d="M69.7305 319.535H74.8958V326.015H69.7305V319.535Z" fill="#99FF52"/>
<path d="M63.0352 319.535H68.2004V326.015H63.0352V319.535Z" fill="#99FF52"/>
<path d="M56.3379 319.535H61.4998V326.015H56.3379V319.535Z" fill="#99FF52"/>
<path d="M49.6426 319.535H54.8044V326.015H49.6426V319.535Z" fill="#99FF52"/>
<path d="M42.9434 319.535H48.1087V326.015H42.9434V319.535Z" fill="#99FF52"/>
<path d="M36.2461 319.535H41.4114V326.015H36.2461V319.535Z" fill="#99FF52"/>
<path d="M29.5488 319.535H34.7141V326.015H29.5488V319.535Z" fill="#99FF52"/>
<path d="M22.8516 319.535H28.0134V326.015H22.8516V319.535Z" fill="#99FF52"/>
<path d="M16.1562 319.535H21.3181V326.015H16.1562V319.535Z" fill="#99FF52"/>
<path d="M9.76101 59.8714C9.27462 59.8714 8.78824 59.6392 8.41488 59.1749C7.6716 58.2418 7.6716 56.7282 8.41488 55.7952L25.9762 33.7455C26.3324 33.2983 26.8188 33.0489 27.3223 33.0489H95.9783L105.829 20.6696C106.189 20.2224 106.672 19.9688 107.179 19.9688H206.532C207.584 19.9688 208.433 21.0394 208.433 22.3595C208.433 23.6795 207.584 24.7459 206.532 24.7459H107.963L98.1088 37.1252C97.7525 37.5724 97.2662 37.8218 96.7626 37.8218H28.1101L11.1071 59.1749C10.7338 59.6392 10.2474 59.8714 9.76101 59.8714Z" fill="#99FF52"/>
<path d="M57.76 100V96.64H60.36V80.48H57.76V77.12H78.8V84.6H75.24V80.48H65.88V86.6H70.68V84.2H73.44V92.32H70.72V89.84H65.88V96.6H75.4V92.2H79V100H57.76ZM81.8391 100V96.64H84.4391V80.48H81.8391V77.12H94.9991C97.0257 77.12 98.7857 77.4267 100.279 78.04C101.772 78.6267 103.012 79.4533 103.999 80.52C105.012 81.56 105.759 82.76 106.239 84.12C106.746 85.48 106.999 86.9067 106.999 88.4C106.999 90.1067 106.746 91.6667 106.239 93.08C105.732 94.4933 104.986 95.72 103.999 96.76C103.012 97.7733 101.772 98.5733 100.279 99.16C98.7857 99.72 97.0391 100 95.0391 100H81.8391ZM89.9191 96.64H94.1591C95.4124 96.64 96.4924 96.44 97.3991 96.04C98.3057 95.64 99.0391 95.08 99.5991 94.36C100.186 93.64 100.612 92.7733 100.879 91.76C101.146 90.7467 101.279 89.64 101.279 88.44C101.279 87.32 101.132 86.28 100.839 85.32C100.572 84.36 100.159 83.52 99.5991 82.8C99.0391 82.08 98.3057 81.52 97.3991 81.12C96.5191 80.6933 95.4524 80.48 94.1991 80.48H89.9191V96.64ZM121.513 100.4C119.219 100.4 117.326 100.053 115.833 99.36C114.339 98.6667 113.219 97.6667 112.473 96.36C111.753 95.0267 111.393 93.4667 111.393 91.68V80.48H108.833V77.12H119.513V80.48H116.833V91.84C116.833 92.9067 117.033 93.8133 117.433 94.56C117.833 95.3067 118.406 95.88 119.153 96.28C119.899 96.68 120.806 96.88 121.873 96.88C123.019 96.88 123.979 96.68 124.753 96.28C125.526 95.88 126.113 95.3067 126.513 94.56C126.939 93.8133 127.153 92.9067 127.153 91.84V80.48H124.873V77.12H133.953V80.48H131.433V91.76C131.433 93.6533 131.033 95.2533 130.233 96.56C129.459 97.84 128.326 98.8 126.833 99.44C125.366 100.08 123.593 100.4 121.513 100.4ZM148.296 100.44C146.456 100.44 144.762 100.16 143.216 99.6C141.696 99.04 140.362 98.24 139.216 97.2C138.069 96.16 137.189 94.92 136.576 93.48C135.962 92.0133 135.656 90.3733 135.656 88.56C135.656 86.1867 136.176 84.1067 137.216 82.32C138.256 80.5333 139.682 79.16 141.496 78.2C143.336 77.2133 145.442 76.72 147.816 76.72C149.416 76.72 150.829 76.96 152.056 77.44C153.309 77.8933 154.336 78.56 155.136 79.44C155.936 80.2933 156.482 81.28 156.776 82.4L155.456 81.68V77.12H159.176V84.8L155.976 84.84C155.229 83.3733 154.282 82.2933 153.136 81.6C152.016 80.88 150.629 80.52 148.976 80.52C147.376 80.52 146.002 80.8667 144.856 81.56C143.736 82.2267 142.856 83.16 142.216 84.36C141.602 85.56 141.296 86.9333 141.296 88.48C141.296 89.7067 141.469 90.8133 141.816 91.8C142.189 92.7867 142.696 93.64 143.336 94.36C144.002 95.08 144.776 95.64 145.656 96.04C146.562 96.4133 147.549 96.6 148.616 96.6C149.736 96.6 150.749 96.4133 151.656 96.04C152.562 95.64 153.336 95.0533 153.976 94.28C154.642 93.48 155.149 92.48 155.496 91.28L159.736 92.92C159.256 94.5467 158.482 95.92 157.416 97.04C156.376 98.1333 155.082 98.9733 153.536 99.56C151.989 100.12 150.242 100.413 148.296 100.44ZM161.866 100V96.64H164.426L170.386 80.48H168.026V77.12H182.146V80.48H179.786L185.866 96.64H188.306V100H177.506V96.64H180.226L178.586 91.64H171.066L169.386 96.64H171.906V100H161.866ZM172.026 88.44H177.586L174.986 80.52H174.786L172.026 88.44ZM195.065 100V96.64H197.825V80.4H192.985V85.4H189.305V77.12H211.745V85.4H208.105V80.4H203.305V96.64H206.105V100H195.065ZM213.797 100V96.64H216.397V80.48H213.797V77.12H224.517V80.48H221.877V96.64H224.517V100H213.797ZM239.963 100.44C238.017 100.44 236.257 100.147 234.683 99.56C233.11 98.9733 231.763 98.1467 230.643 97.08C229.523 96.0133 228.657 94.76 228.043 93.32C227.457 91.88 227.163 90.32 227.163 88.64C227.163 86.9333 227.457 85.36 228.043 83.92C228.657 82.4533 229.523 81.1867 230.643 80.12C231.763 79.0533 233.11 78.2267 234.683 77.64C236.257 77.0267 238.017 76.72 239.963 76.72C241.883 76.72 243.63 77.0267 245.203 77.64C246.777 78.2267 248.123 79.0533 249.243 80.12C250.363 81.1867 251.217 82.4533 251.803 83.92C252.417 85.36 252.723 86.92 252.723 88.6C252.723 90.3067 252.417 91.88 251.803 93.32C251.217 94.76 250.363 96.0133 249.243 97.08C248.123 98.1467 246.777 98.9733 245.203 99.56C243.63 100.147 241.883 100.44 239.963 100.44ZM239.963 96.6C241.03 96.6 241.99 96.4 242.843 96C243.723 95.5733 244.47 95 245.083 94.28C245.697 93.56 246.163 92.72 246.483 91.76C246.803 90.7733 246.963 89.6933 246.963 88.52C246.963 87.3733 246.803 86.3067 246.483 85.32C246.163 84.3333 245.697 83.48 245.083 82.76C244.47 82.04 243.723 81.4933 242.843 81.12C241.99 80.72 241.03 80.52 239.963 80.52C238.843 80.52 237.857 80.72 237.003 81.12C236.15 81.52 235.417 82.08 234.803 82.8C234.19 83.52 233.723 84.3733 233.403 85.36C233.083 86.32 232.923 87.3867 232.923 88.56C232.923 89.7067 233.083 90.7733 233.403 91.76C233.723 92.72 234.19 93.5733 234.803 94.32C235.417 95.04 236.15 95.6 237.003 96C237.857 96.4 238.843 96.6 239.963 96.6ZM255.191 100V96.64H257.831V80.48H255.191V77.12H264.191L275.031 93.04V80.48H272.231V77.12H281.431V80.48H278.831V100H273.311L261.551 82.68V96.64H264.351V100H255.191Z" fill="white"/>
<mask id="mask6_797_188" style="mask-type:luminance" maskUnits="userSpaceOnUse" x="132" y="144" width="90" height="142">
<path d="M132.115 144H221.001V285.376H132.115V144Z" fill="white"/>
</mask>
<g mask="url(#mask6_797_188)">
<path fill-rule="evenodd" clip-rule="evenodd" d="M210.781 285.372H142.948C137.316 285.372 132.729 280.785 132.729 275.153V254.269C132.729 253.093 133.684 252.139 134.86 252.139C136.039 252.139 136.993 253.093 136.993 254.269V275.153C136.993 278.429 139.664 281.104 142.91 281.104H210.743C214.023 281.104 216.664 278.429 216.664 275.183V154.225C216.664 150.946 213.989 148.305 210.743 148.305H142.914C139.638 148.305 136.963 150.976 136.963 154.225V213.466C136.963 214.642 136.009 215.597 134.833 215.597C133.657 215.597 132.703 214.642 132.703 213.466V154.225C132.703 148.59 137.286 144.007 142.922 144.007H210.751C216.382 144.007 220.969 148.59 220.969 154.225V275.183C220.999 280.788 216.412 285.372 210.781 285.372Z" fill="#B5DF9C"/>
</g>
<mask id="mask7_797_188" style="mask-type:luminance" maskUnits="userSpaceOnUse" x="132" y="160" width="90" height="110">
<path d="M132.115 160.488H221.001V269.165H132.115V160.488Z" fill="white"/>
</mask>
<g mask="url(#mask7_797_188)">
<path fill-rule="evenodd" clip-rule="evenodd" d="M218.867 268.375H134.864C133.689 268.375 132.734 267.421 132.734 266.242V254.272C132.734 253.096 133.689 252.142 134.864 252.142C136.044 252.142 136.998 253.096 136.998 254.272V264.078H216.699V165.24H137.028V213.398C137.028 214.578 136.074 215.532 134.898 215.532C133.722 215.532 132.768 214.578 132.768 213.398V163.076C132.768 161.9 133.722 160.946 134.898 160.946H218.867C220.046 160.946 221.001 161.9 221.001 163.076V266.211C221.001 267.421 220.046 268.375 218.867 268.375Z" fill="#B5DF9C"/>
</g>
<path fill-rule="evenodd" clip-rule="evenodd" d="M186.871 157H166.129C164.954 157 164 156.329 164 155.499C164 154.671 164.954 154 166.129 154H186.871C188.046 154 189 154.671 189 155.499C189 156.326 188.046 157 186.871 157Z" fill="#B5DF9C"/>
<path fill-rule="evenodd" clip-rule="evenodd" d="M148.576 190.501L175.998 206.253L203.42 190.501L175.998 174.75L148.576 190.501ZM175.998 211C175.641 211 175.256 210.899 174.933 210.706L143.095 192.426C142.422 192.036 142 191.313 142 190.498C142 189.709 142.418 188.955 143.095 188.565L174.937 170.293C175.614 169.902 176.42 169.902 177.067 170.293L208.905 188.569C209.578 188.959 210 189.686 210 190.501C210 191.286 209.582 192.04 208.905 192.43L177.067 210.71C176.74 210.903 176.386 211 175.998 211Z" fill="#B5DF9C"/>
<path fill-rule="evenodd" clip-rule="evenodd" d="M194.936 223H158.068C156.926 223 156 222.012 156 220.794V196.206C156 194.988 156.926 194 158.068 194C159.21 194 160.136 194.988 160.136 196.206V218.585H192.864V196.206C192.864 194.988 193.79 194 194.932 194C196.074 194 197 194.988 197 196.206V220.794C197.004 222.012 196.077 223 194.936 223Z" fill="#B5DF9C"/>
<mask id="mask8_797_188" style="mask-type:luminance" maskUnits="userSpaceOnUse" x="89" y="199" width="69" height="70">
<path d="M89 199.92H157.118V268.204H89V199.92Z" fill="white"/>
</mask>
<g mask="url(#mask8_797_188)">
<path fill-rule="evenodd" clip-rule="evenodd" d="M120.027 263.474H125.125V257.204C125.125 256.182 125.854 255.292 126.842 255.1C129.611 254.559 132.158 253.507 134.42 252.008C135.28 251.437 136.392 251.565 137.125 252.298L141.516 256.689L145.115 253.09L140.784 248.766C140.051 248.034 139.957 246.892 140.528 246.031C142.121 243.736 143.233 241.162 143.842 238.39C144.063 237.406 144.924 236.703 145.946 236.703L151.93 236.737V231.673H146.073C145.021 231.673 144.165 230.944 143.97 229.922C143.462 227.119 142.411 224.448 140.821 222.029C140.28 221.169 140.378 220.057 141.107 219.358L145.183 215.282L141.584 211.683L137.575 215.695C136.843 216.424 135.697 216.522 134.837 215.947C132.478 214.328 129.713 213.178 126.88 212.603C125.892 212.415 125.159 211.521 125.159 210.503V204.868H120.099V210.503C120.099 211.521 119.366 212.412 118.378 212.603C115.546 213.178 112.871 214.29 110.455 215.947C109.591 216.522 108.449 216.424 107.716 215.695L103.674 211.649L100.075 215.248L104.151 219.324C104.88 220.057 104.978 221.172 104.437 222.029C102.878 224.415 101.829 227.029 101.289 229.858C101.097 230.876 100.203 231.609 99.1847 231.609H93.2264V236.673H99.2786C100.297 236.673 101.153 237.372 101.379 238.39C101.953 241.095 103.035 243.676 104.628 245.997C105.199 246.858 105.105 248.004 104.373 248.736L99.9811 253.094L103.58 256.693L108.002 252.268C108.734 251.539 109.85 251.441 110.707 251.982C113.002 253.511 115.549 254.563 118.284 255.1C119.272 255.288 120.005 256.182 120.005 257.204L120.027 263.474ZM127.256 267.734H117.897C116.721 267.734 115.767 266.78 115.767 265.604V258.857C113.727 258.282 111.755 257.489 109.91 256.438L105.169 261.182C104.756 261.592 104.215 261.817 103.64 261.817C103.065 261.817 102.524 261.592 102.111 261.182L95.4918 254.563C95.0785 254.15 94.8569 253.609 94.8569 253.034C94.8569 252.459 95.0785 251.918 95.4918 251.505L100.169 246.858C99.0532 244.983 98.2305 243.003 97.6557 240.937H91.1301C89.9542 240.937 89 239.983 89 238.807V229.441C89 228.265 89.9542 227.311 91.1301 227.311H97.5279C98.0689 225.147 98.8917 223.111 100.007 221.169L95.5857 216.743C94.7554 215.917 94.7554 214.549 95.5857 213.719L102.205 207.099C102.618 206.69 103.159 206.465 103.734 206.465C104.309 206.465 104.85 206.69 105.263 207.099L109.591 211.431C111.567 210.289 113.667 209.395 115.865 208.79V202.708C115.865 201.532 116.819 200.578 117.995 200.578H127.353C127.924 200.578 128.469 200.799 128.878 201.213C129.292 201.626 129.513 202.167 129.513 202.742V208.824C131.711 209.429 133.845 210.319 135.787 211.465L140.085 207.167C140.498 206.754 141.039 206.532 141.614 206.532C142.189 206.532 142.73 206.754 143.143 207.167L149.763 213.787C150.172 214.196 150.397 214.741 150.397 215.312C150.397 215.887 150.172 216.431 149.763 216.841L145.333 221.233C146.449 223.209 147.276 225.279 147.817 227.439H154.087C155.266 227.439 156.221 228.393 156.221 229.573V238.927C156.221 239.502 155.995 240.047 155.586 240.456C155.172 240.869 154.631 241.091 154.087 241.091L147.625 241.061C147.02 243.161 146.164 245.163 145.048 247.012L149.661 251.625C150.074 252.038 150.296 252.579 150.296 253.154C150.296 253.729 150.074 254.27 149.661 254.683L143.008 261.209C142.595 261.622 142.054 261.844 141.479 261.844C140.908 261.844 140.363 261.622 139.95 261.209L135.246 256.501C133.398 257.523 131.456 258.32 129.356 258.887V265.604C129.389 266.78 128.431 267.734 127.256 267.734Z" fill="#B5DF9C"/>
</g>
<path fill-rule="evenodd" clip-rule="evenodd" d="M122.5 222.314C115.798 222.314 110.317 227.761 110.317 234.498C110.317 241.201 115.76 246.686 122.5 246.686C129.202 246.686 134.652 241.239 134.652 234.498C134.652 227.792 129.202 222.314 122.5 222.314ZM122.5 251C113.413 251 106 243.586 106 234.498C106 225.41 113.417 218 122.5 218C131.583 218 139 225.414 139 234.498C139 243.586 131.591 251 122.5 251Z" fill="#B5DF9C"/>
</svg>
