<svg width="330" height="346" viewBox="0 0 330 346" fill="none" xmlns="http://www.w3.org/2000/svg">
<mask id="mask0_797_183" style="mask-type:luminance" maskUnits="userSpaceOnUse" x="313" y="18" width="17" height="302">
<path d="M313.918 18.1064H329.996V319.462H313.918V18.1064Z" fill="white"/>
</mask>
<g mask="url(#mask0_797_183)">
<path d="M313.99 319.453H329.976V18.2051H313.99V319.453Z" fill="#99FF52"/>
<path d="M313.99 319.453H329.976V18.2051H313.99V319.453Z" fill="#99FF52"/>
</g>
<mask id="mask1_797_183" style="mask-type:luminance" maskUnits="userSpaceOnUse" x="230" y="321" width="100" height="10">
<path d="M230.465 321.616H330V330.667H230.465V321.616Z" fill="white"/>
</mask>
<g mask="url(#mask1_797_183)">
<path d="M330.001 321.848L323.243 330.332H230.6L237.474 321.702L330.001 321.848Z" fill="#99FF52"/>
</g>
<path d="M291.85 330.332L287.082 336.314H189.38L184.488 330.173L291.85 330.332Z" fill="#99FF52"/>
<path d="M184.467 26.53L191.225 18.0464H283.868L276.993 26.6762L184.467 26.53Z" fill="#99FF52"/>
<mask id="mask2_797_183" style="mask-type:luminance" maskUnits="userSpaceOnUse" x="222" y="11" width="108" height="8">
<path d="M222.564 11.6396H329.998V18.5409H222.564V11.6396Z" fill="white"/>
</mask>
<g mask="url(#mask2_797_183)">
<path d="M222.619 18.0465L227.384 12.0654H325.086L329.977 18.2056L222.619 18.0465Z" fill="#99FF52"/>
</g>
<mask id="mask3_797_183" style="mask-type:luminance" maskUnits="userSpaceOnUse" x="0" y="4" width="133" height="138">
<path d="M0 4.38135H132.712V141.977H0V4.38135Z" fill="white"/>
</mask>
<g mask="url(#mask3_797_183)">
<path d="M131.886 16.4642L123.943 26.4313H11.82L11.7961 141.809L6.7575 135.484V73.2352L0.0234375 64.786V25.4466L8.02142 13.5919H65.9563L72.8239 4.9707H101.606L110.916 16.4642H131.886Z" fill="#99FF52"/>
</g>
<mask id="mask4_797_183" style="mask-type:luminance" maskUnits="userSpaceOnUse" x="73" y="0" width="163" height="14">
<path d="M73.9609 0H235.304V13.1877H73.9609V0Z" fill="white"/>
</mask>
<g mask="url(#mask4_797_183)">
<path d="M234.167 12.9598H114.174L114.026 12.7792L104.843 1.24696H74.8175C74.5434 1.24696 74.3242 0.971767 74.3242 0.623479C74.3242 0.279491 74.5434 0 74.8175 0H105.258L105.405 0.180594L114.585 11.7085H234.167C234.445 11.7085 234.664 11.988 234.664 12.332C234.664 12.6803 234.445 12.9598 234.167 12.9598Z" fill="#99FF52"/>
</g>
<path d="M238.168 332.723H11.2482C10.1966 332.723 9.34375 331.657 9.34375 330.332V82.695C9.34375 81.375 10.1966 80.3086 11.2482 80.3086C12.2998 80.3086 13.1526 81.375 13.1526 82.695V327.946H238.168C239.22 327.946 240.069 329.012 240.069 330.332C240.069 331.657 239.22 332.723 238.168 332.723Z" fill="#99FF52"/>
<path d="M11.2481 132.079L16.2593 125.788V58.8481L11.207 52.5059L11.2481 132.079Z" fill="#99FF52"/>
<path d="M10.008 41.7514L24.466 23.606H8.32617L10.008 41.7514Z" fill="#99FF52"/>
<mask id="mask5_797_183" style="mask-type:luminance" maskUnits="userSpaceOnUse" x="0" y="99" width="165" height="247">
<path d="M0.302734 99.0469H164.277V345.089H0.302734V99.0469Z" fill="white"/>
</mask>
<g mask="url(#mask5_797_183)">
<path d="M95.1514 344.896H10.9345L0.648438 331.975V112.652L10.544 100.221C10.8043 99.8984 11.2222 99.8984 11.4791 100.221C11.7394 100.548 11.7394 101.072 11.4791 101.395L1.96716 113.335V331.295L11.4825 343.236H94.5999L97.6553 339.392H155.34L163.03 329.747C163.287 329.425 163.708 329.425 163.965 329.747C164.222 330.07 164.222 330.599 163.965 330.921L155.885 341.056H98.2067L95.1514 344.896Z" fill="#99FF52"/>
</g>
<path d="M315.633 163.721C315.465 163.721 315.294 163.64 315.167 163.476L307.995 154.472V114.217L310.917 110.549V57.9235L308.029 54.2987V27.0204L304.457 22.5356H276.661C276.294 22.5356 275.996 22.1615 275.996 21.7015C275.996 21.2457 276.294 20.8716 276.661 20.8716H305.001L309.351 26.3324V53.615L312.239 57.2398V111.233L309.32 114.901V153.789L316.102 162.303C316.359 162.629 316.359 163.154 316.102 163.476C315.972 163.64 315.804 163.721 315.633 163.721Z" fill="#99FF52"/>
<path d="M223.768 319.535H228.929V326.015H223.768V319.535Z" fill="#99FF52"/>
<path d="M217.068 319.535H222.234V326.015H217.068V319.535Z" fill="#99FF52"/>
<path d="M210.373 319.535H215.538V326.015H210.373V319.535Z" fill="#99FF52"/>
<path d="M203.674 319.535H208.839V326.015H203.674V319.535Z" fill="#99FF52"/>
<path d="M196.98 319.535H202.142V326.015H196.98V319.535Z" fill="#99FF52"/>
<path d="M190.279 319.535H195.445V326.015H190.279V319.535Z" fill="#99FF52"/>
<path d="M183.584 319.535H188.749V326.015H183.584V319.535Z" fill="#99FF52"/>
<path d="M176.887 319.535H182.052V326.015H176.887V319.535Z" fill="#99FF52"/>
<path d="M170.191 319.535H175.353V326.015H170.191V319.535Z" fill="#99FF52"/>
<path d="M163.492 319.535H168.657V326.015H163.492V319.535Z" fill="#99FF52"/>
<path d="M156.795 319.535H161.96V326.015H156.795V319.535Z" fill="#99FF52"/>
<path d="M150.098 319.535H155.263V326.015H150.098V319.535Z" fill="#99FF52"/>
<path d="M143.4 319.535H148.566V326.015H143.4V319.535Z" fill="#99FF52"/>
<path d="M136.705 319.535H141.867V326.015H136.705V319.535Z" fill="#99FF52"/>
<path d="M130.006 319.535H135.171V326.015H130.006V319.535Z" fill="#99FF52"/>
<path d="M123.309 319.535H128.474V326.015H123.309V319.535Z" fill="#99FF52"/>
<path d="M116.613 319.535H121.779V326.015H116.613V319.535Z" fill="#99FF52"/>
<path d="M109.918 319.535H115.08V326.015H109.918V319.535Z" fill="#99FF52"/>
<path d="M103.221 319.535H108.383V326.015H103.221V319.535Z" fill="#99FF52"/>
<path d="M96.5215 319.535H101.687V326.015H96.5215V319.535Z" fill="#99FF52"/>
<path d="M89.8242 319.535H94.9895V326.015H89.8242V319.535Z" fill="#99FF52"/>
<path d="M83.127 319.535H88.2888V326.015H83.127V319.535Z" fill="#99FF52"/>
<path d="M76.4316 319.535H81.5935V326.015H76.4316V319.535Z" fill="#99FF52"/>
<path d="M69.7305 319.535H74.8958V326.015H69.7305V319.535Z" fill="#99FF52"/>
<path d="M63.0352 319.535H68.2004V326.015H63.0352V319.535Z" fill="#99FF52"/>
<path d="M56.3379 319.535H61.4998V326.015H56.3379V319.535Z" fill="#99FF52"/>
<path d="M49.6426 319.535H54.8044V326.015H49.6426V319.535Z" fill="#99FF52"/>
<path d="M42.9434 319.535H48.1087V326.015H42.9434V319.535Z" fill="#99FF52"/>
<path d="M36.2461 319.535H41.4114V326.015H36.2461V319.535Z" fill="#99FF52"/>
<path d="M29.5488 319.535H34.7141V326.015H29.5488V319.535Z" fill="#99FF52"/>
<path d="M22.8516 319.535H28.0134V326.015H22.8516V319.535Z" fill="#99FF52"/>
<path d="M16.1562 319.535H21.3181V326.015H16.1562V319.535Z" fill="#99FF52"/>
<path d="M9.76101 59.8714C9.27462 59.8714 8.78824 59.6392 8.41488 59.1749C7.6716 58.2418 7.6716 56.7282 8.41488 55.7952L25.9762 33.7455C26.3324 33.2983 26.8188 33.0489 27.3223 33.0489H95.9783L105.829 20.6696C106.189 20.2224 106.672 19.9688 107.179 19.9688H206.532C207.584 19.9688 208.433 21.0394 208.433 22.3595C208.433 23.6795 207.584 24.7459 206.532 24.7459H107.963L98.1088 37.1252C97.7525 37.5724 97.2662 37.8218 96.7626 37.8218H28.1101L11.1071 59.1749C10.7338 59.6392 10.2474 59.8714 9.76101 59.8714Z" fill="#99FF52"/>
<path d="M107.472 110L99.696 86.576H96.912V82.544H108.528V86.576H105.6L110.064 101.312L116.256 83.216H120.432L126.576 101.312L131.136 86.576H127.968V82.544H139.104V86.576H136.272L128.784 110H124.32L118.128 92.432L111.984 110H107.472ZM141.081 110V105.968H144.201V86.576H141.081V82.544H166.329V91.52H162.057V86.576H150.825V93.92H156.585V91.04H159.897V100.784H156.633V97.808H150.825V105.92H162.249V100.64H166.569V110H141.081ZM170.128 110V105.968H173.248V86.576H170.128V82.544H185.2C188.56 82.544 191.04 83.152 192.64 84.368C194.272 85.552 195.088 87.184 195.088 89.264C195.088 90.832 194.672 92.112 193.84 93.104C193.008 94.064 191.792 94.736 190.192 95.12C191.696 95.408 192.912 95.888 193.84 96.56C194.768 97.232 195.44 98.048 195.856 99.008C196.304 99.968 196.528 101.04 196.528 102.224C196.528 103.76 196.144 105.12 195.376 106.304C194.64 107.456 193.472 108.368 191.872 109.04C190.304 109.68 188.272 110 185.776 110H170.128ZM179.824 105.92H184.48C186.336 105.92 187.664 105.536 188.464 104.768C189.296 104 189.712 102.96 189.712 101.648C189.712 100.368 189.28 99.36 188.416 98.624C187.584 97.856 186.24 97.472 184.384 97.472H179.824V105.92ZM179.824 93.584H184.048C185.584 93.584 186.688 93.264 187.36 92.624C188.064 91.984 188.416 91.104 188.416 89.984C188.416 88.8 188.032 87.936 187.264 87.392C186.496 86.848 185.264 86.576 183.568 86.576H179.824V93.584ZM223.684 110.48C220.836 110.48 218.484 109.888 216.628 108.704C214.804 107.52 213.46 105.856 212.596 103.712L217.3 101.648C217.876 103.12 218.692 104.24 219.748 105.008C220.804 105.744 222.036 106.112 223.444 106.112C224.852 106.112 225.972 105.76 226.804 105.056C227.668 104.352 228.1 103.392 228.1 102.176C228.1 100.672 227.556 99.552 226.468 98.816C225.412 98.048 223.748 97.664 221.476 97.664V94.112C223.492 94.112 225.044 93.76 226.132 93.056C227.22 92.32 227.764 91.264 227.764 89.888C227.764 88.8 227.412 87.936 226.708 87.296C226.004 86.656 224.964 86.336 223.588 86.336C222.212 86.336 221.06 86.736 220.132 87.536C219.204 88.304 218.564 89.376 218.212 90.752L213.316 88.976C213.764 87.44 214.484 86.16 215.476 85.136C216.5 84.112 217.732 83.344 219.172 82.832C220.644 82.32 222.26 82.064 224.02 82.064C227.06 82.064 229.396 82.736 231.028 84.08C232.692 85.424 233.524 87.168 233.524 89.312C233.524 90.592 233.22 91.712 232.612 92.672C232.004 93.632 231.172 94.416 230.116 95.024C229.06 95.6 227.86 95.952 226.516 96.08V95.312C228.692 95.472 230.5 96.176 231.94 97.424C233.412 98.64 234.148 100.336 234.148 102.512C234.148 104.176 233.716 105.616 232.852 106.832C231.988 108.016 230.772 108.928 229.204 109.568C227.636 110.176 225.796 110.48 223.684 110.48Z" fill="white"/>
<mask id="mask6_797_183" style="mask-type:luminance" maskUnits="userSpaceOnUse" x="96" y="218" width="24" height="42">
<path d="M96 218.481H119.463V260H96V218.481Z" fill="white"/>
</mask>
<g mask="url(#mask6_797_183)">
<path d="M119.418 232.831V259.876L96 246.359V219.313L119.418 232.831Z" fill="#B5DF9C"/>
</g>
<path d="M149.964 219.313V246.359L126.547 259.876V232.831L149.964 219.313Z" fill="#B5DF9C"/>
<path d="M146.405 213.139L122.98 226.664L99.5625 213.139L122.98 199.622L146.405 213.139Z" fill="#B5DF9C"/>
<path d="M197.507 232.831V259.876L174.09 246.359V219.313L197.507 232.831Z" fill="#B5DF9C"/>
<mask id="mask7_797_183" style="mask-type:luminance" maskUnits="userSpaceOnUse" x="204" y="218" width="25" height="42">
<path d="M204.309 218.988H228.001V259.999H204.309V218.988Z" fill="white"/>
</mask>
<g mask="url(#mask7_797_183)">
<path d="M228.054 219.312V246.358L204.633 259.875V232.83L228.054 219.312Z" fill="#B5DF9C"/>
</g>
<path d="M224.494 213.139L201.073 226.664L177.652 213.139L201.073 199.622L224.494 213.139Z" fill="#B5DF9C"/>
<path d="M158.462 165.325V192.366L135.045 178.849V151.807L158.462 165.325Z" fill="#B5DF9C"/>
<path d="M189.011 151.807V178.849L165.586 192.366V165.325L189.011 151.807Z" fill="#B5DF9C"/>
<mask id="mask8_797_183" style="mask-type:luminance" maskUnits="userSpaceOnUse" x="138" y="132" width="49" height="28">
<path d="M138.418 132H186.254V159.814H138.418V132Z" fill="white"/>
</mask>
<g mask="url(#mask8_797_183)">
<path d="M185.448 145.63L162.027 159.158L138.609 145.63L162.027 132.112L185.448 145.63Z" fill="#B5DF9C"/>
</g>
<path d="M116.066 193.139V181.406L125.902 175.726V165.378L109.346 174.936C107.957 175.74 107.104 177.221 107.104 178.821V198.308L116.066 193.139Z" fill="#B5DF9C"/>
<path d="M198.152 175.726L207.989 181.406V193.139L216.948 198.308V178.821C216.948 177.221 216.098 175.74 214.709 174.936L198.152 165.378V175.726Z" fill="#B5DF9C"/>
<mask id="mask9_797_183" style="mask-type:luminance" maskUnits="userSpaceOnUse" x="143" y="255" width="38" height="16">
<path d="M143.385 255.486H180.616V270.675H143.385V255.486Z" fill="white"/>
</mask>
<g mask="url(#mask9_797_183)">
<path d="M171.541 255.525L162.025 261.021L152.513 255.525L143.547 260.701L159.786 270.075C160.481 270.474 161.249 270.675 162.025 270.675C162.801 270.675 163.573 270.474 164.264 270.075L180.506 260.701L171.541 255.525Z" fill="#B5DF9C"/>
</g>
</svg>
