<svg width="330" height="346" viewBox="0 0 330 346" fill="none" xmlns="http://www.w3.org/2000/svg">
<mask id="mask0_797_187" style="mask-type:luminance" maskUnits="userSpaceOnUse" x="313" y="18" width="17" height="302">
<path d="M313.918 18.1064H329.996V319.462H313.918V18.1064Z" fill="white"/>
</mask>
<g mask="url(#mask0_797_187)">
<path d="M313.99 319.453H329.976V18.2051H313.99V319.453Z" fill="#99FF52"/>
<path d="M313.99 319.453H329.976V18.2051H313.99V319.453Z" fill="#99FF52"/>
</g>
<mask id="mask1_797_187" style="mask-type:luminance" maskUnits="userSpaceOnUse" x="230" y="321" width="100" height="10">
<path d="M230.465 321.616H330V330.667H230.465V321.616Z" fill="white"/>
</mask>
<g mask="url(#mask1_797_187)">
<path d="M330.001 321.848L323.243 330.332H230.6L237.474 321.702L330.001 321.848Z" fill="#99FF52"/>
</g>
<path d="M291.85 330.332L287.082 336.314H189.38L184.488 330.173L291.85 330.332Z" fill="#99FF52"/>
<path d="M184.467 26.53L191.225 18.0464H283.868L276.993 26.6762L184.467 26.53Z" fill="#99FF52"/>
<mask id="mask2_797_187" style="mask-type:luminance" maskUnits="userSpaceOnUse" x="222" y="11" width="108" height="8">
<path d="M222.564 11.6396H329.998V18.5409H222.564V11.6396Z" fill="white"/>
</mask>
<g mask="url(#mask2_797_187)">
<path d="M222.619 18.0465L227.384 12.0654H325.086L329.977 18.2056L222.619 18.0465Z" fill="#99FF52"/>
</g>
<mask id="mask3_797_187" style="mask-type:luminance" maskUnits="userSpaceOnUse" x="0" y="4" width="133" height="138">
<path d="M0 4.38135H132.712V141.977H0V4.38135Z" fill="white"/>
</mask>
<g mask="url(#mask3_797_187)">
<path d="M131.886 16.4642L123.943 26.4313H11.82L11.7961 141.809L6.7575 135.484V73.2352L0.0234375 64.786V25.4466L8.02142 13.5919H65.9563L72.8239 4.9707H101.606L110.916 16.4642H131.886Z" fill="#99FF52"/>
</g>
<mask id="mask4_797_187" style="mask-type:luminance" maskUnits="userSpaceOnUse" x="73" y="0" width="163" height="14">
<path d="M73.9609 0H235.304V13.1877H73.9609V0Z" fill="white"/>
</mask>
<g mask="url(#mask4_797_187)">
<path d="M234.167 12.9598H114.174L114.026 12.7792L104.843 1.24696H74.8175C74.5434 1.24696 74.3242 0.971767 74.3242 0.623479C74.3242 0.279491 74.5434 0 74.8175 0H105.258L105.405 0.180594L114.585 11.7085H234.167C234.445 11.7085 234.664 11.988 234.664 12.332C234.664 12.6803 234.445 12.9598 234.167 12.9598Z" fill="#99FF52"/>
</g>
<path d="M238.168 332.723H11.2482C10.1966 332.723 9.34375 331.657 9.34375 330.332V82.695C9.34375 81.375 10.1966 80.3086 11.2482 80.3086C12.2998 80.3086 13.1526 81.375 13.1526 82.695V327.946H238.168C239.22 327.946 240.069 329.012 240.069 330.332C240.069 331.657 239.22 332.723 238.168 332.723Z" fill="#99FF52"/>
<path d="M11.2481 132.079L16.2593 125.788V58.8481L11.207 52.5059L11.2481 132.079Z" fill="#99FF52"/>
<path d="M10.008 41.7514L24.466 23.606H8.32617L10.008 41.7514Z" fill="#99FF52"/>
<mask id="mask5_797_187" style="mask-type:luminance" maskUnits="userSpaceOnUse" x="0" y="99" width="165" height="247">
<path d="M0.302734 99.0469H164.277V345.089H0.302734V99.0469Z" fill="white"/>
</mask>
<g mask="url(#mask5_797_187)">
<path d="M95.1514 344.896H10.9345L0.648438 331.975V112.652L10.544 100.221C10.8043 99.8984 11.2222 99.8984 11.4791 100.221C11.7394 100.548 11.7394 101.072 11.4791 101.395L1.96716 113.335V331.295L11.4825 343.236H94.5999L97.6553 339.392H155.34L163.03 329.747C163.287 329.425 163.708 329.425 163.965 329.747C164.222 330.07 164.222 330.599 163.965 330.921L155.885 341.056H98.2067L95.1514 344.896Z" fill="#99FF52"/>
</g>
<path d="M315.633 163.721C315.465 163.721 315.294 163.64 315.167 163.476L307.995 154.472V114.217L310.917 110.549V57.9235L308.029 54.2987V27.0204L304.457 22.5356H276.661C276.294 22.5356 275.996 22.1615 275.996 21.7015C275.996 21.2457 276.294 20.8716 276.661 20.8716H305.001L309.351 26.3324V53.615L312.239 57.2398V111.233L309.32 114.901V153.789L316.102 162.303C316.359 162.629 316.359 163.154 316.102 163.476C315.972 163.64 315.804 163.721 315.633 163.721Z" fill="#99FF52"/>
<path d="M223.768 319.535H228.929V326.015H223.768V319.535Z" fill="#99FF52"/>
<path d="M217.068 319.535H222.234V326.015H217.068V319.535Z" fill="#99FF52"/>
<path d="M210.373 319.535H215.538V326.015H210.373V319.535Z" fill="#99FF52"/>
<path d="M203.674 319.535H208.839V326.015H203.674V319.535Z" fill="#99FF52"/>
<path d="M196.98 319.535H202.142V326.015H196.98V319.535Z" fill="#99FF52"/>
<path d="M190.279 319.535H195.445V326.015H190.279V319.535Z" fill="#99FF52"/>
<path d="M183.584 319.535H188.749V326.015H183.584V319.535Z" fill="#99FF52"/>
<path d="M176.887 319.535H182.052V326.015H176.887V319.535Z" fill="#99FF52"/>
<path d="M170.191 319.535H175.353V326.015H170.191V319.535Z" fill="#99FF52"/>
<path d="M163.492 319.535H168.657V326.015H163.492V319.535Z" fill="#99FF52"/>
<path d="M156.795 319.535H161.96V326.015H156.795V319.535Z" fill="#99FF52"/>
<path d="M150.098 319.535H155.263V326.015H150.098V319.535Z" fill="#99FF52"/>
<path d="M143.4 319.535H148.566V326.015H143.4V319.535Z" fill="#99FF52"/>
<path d="M136.705 319.535H141.867V326.015H136.705V319.535Z" fill="#99FF52"/>
<path d="M130.006 319.535H135.171V326.015H130.006V319.535Z" fill="#99FF52"/>
<path d="M123.309 319.535H128.474V326.015H123.309V319.535Z" fill="#99FF52"/>
<path d="M116.613 319.535H121.779V326.015H116.613V319.535Z" fill="#99FF52"/>
<path d="M109.918 319.535H115.08V326.015H109.918V319.535Z" fill="#99FF52"/>
<path d="M103.221 319.535H108.383V326.015H103.221V319.535Z" fill="#99FF52"/>
<path d="M96.5215 319.535H101.687V326.015H96.5215V319.535Z" fill="#99FF52"/>
<path d="M89.8242 319.535H94.9895V326.015H89.8242V319.535Z" fill="#99FF52"/>
<path d="M83.127 319.535H88.2888V326.015H83.127V319.535Z" fill="#99FF52"/>
<path d="M76.4316 319.535H81.5935V326.015H76.4316V319.535Z" fill="#99FF52"/>
<path d="M69.7305 319.535H74.8958V326.015H69.7305V319.535Z" fill="#99FF52"/>
<path d="M63.0352 319.535H68.2004V326.015H63.0352V319.535Z" fill="#99FF52"/>
<path d="M56.3379 319.535H61.4998V326.015H56.3379V319.535Z" fill="#99FF52"/>
<path d="M49.6426 319.535H54.8044V326.015H49.6426V319.535Z" fill="#99FF52"/>
<path d="M42.9434 319.535H48.1087V326.015H42.9434V319.535Z" fill="#99FF52"/>
<path d="M36.2461 319.535H41.4114V326.015H36.2461V319.535Z" fill="#99FF52"/>
<path d="M29.5488 319.535H34.7141V326.015H29.5488V319.535Z" fill="#99FF52"/>
<path d="M22.8516 319.535H28.0134V326.015H22.8516V319.535Z" fill="#99FF52"/>
<path d="M16.1562 319.535H21.3181V326.015H16.1562V319.535Z" fill="#99FF52"/>
<path d="M9.76101 59.8714C9.27462 59.8714 8.78824 59.6392 8.41488 59.1749C7.6716 58.2418 7.6716 56.7282 8.41488 55.7952L25.9762 33.7455C26.3324 33.2983 26.8188 33.0489 27.3223 33.0489H95.9783L105.829 20.6696C106.189 20.2224 106.672 19.9688 107.179 19.9688H206.532C207.584 19.9688 208.433 21.0394 208.433 22.3595C208.433 23.6795 207.584 24.7459 206.532 24.7459H107.963L98.1088 37.1252C97.7525 37.5724 97.2662 37.8218 96.7626 37.8218H28.1101L11.1071 59.1749C10.7338 59.6392 10.2474 59.8714 9.76101 59.8714Z" fill="#99FF52"/>
<path d="M41.552 94.352C39.9947 94.352 38.5867 94.1173 37.328 93.648C36.0693 93.1787 34.992 92.5173 34.096 91.664C33.2 90.8107 32.5067 89.808 32.016 88.656C31.5467 87.504 31.312 86.256 31.312 84.912C31.312 83.5467 31.5467 82.288 32.016 81.136C32.5067 79.9627 33.2 78.9493 34.096 78.096C34.992 77.2427 36.0693 76.5813 37.328 76.112C38.5867 75.6213 39.9947 75.376 41.552 75.376C43.088 75.376 44.4853 75.6213 45.744 76.112C47.0027 76.5813 48.08 77.2427 48.976 78.096C49.872 78.9493 50.5547 79.9627 51.024 81.136C51.5147 82.288 51.76 83.536 51.76 84.88C51.76 86.2453 51.5147 87.504 51.024 88.656C50.5547 89.808 49.872 90.8107 48.976 91.664C48.08 92.5173 47.0027 93.1787 45.744 93.648C44.4853 94.1173 43.088 94.352 41.552 94.352ZM41.552 91.28C42.4053 91.28 43.1733 91.12 43.856 90.8C44.56 90.4587 45.1573 90 45.648 89.424C46.1387 88.848 46.512 88.176 46.768 87.408C47.024 86.6187 47.152 85.7547 47.152 84.816C47.152 83.8987 47.024 83.0453 46.768 82.256C46.512 81.4667 46.1387 80.784 45.648 80.208C45.1573 79.632 44.56 79.1947 43.856 78.896C43.1733 78.576 42.4053 78.416 41.552 78.416C40.656 78.416 39.8667 78.576 39.184 78.896C38.5013 79.216 37.9147 79.664 37.424 80.24C36.9333 80.816 36.56 81.4987 36.304 82.288C36.048 83.056 35.92 83.9093 35.92 84.848C35.92 85.7653 36.048 86.6187 36.304 87.408C36.56 88.176 36.9333 88.8587 37.424 89.456C37.9147 90.032 38.5013 90.48 39.184 90.8C39.8667 91.12 40.656 91.28 41.552 91.28ZM52.5018 94V91.312H54.5818V78.384H52.5018V75.696H62.1338C64.5658 75.696 66.4218 76.1333 67.7018 77.008C68.9818 77.8613 69.6218 79.216 69.6218 81.072C69.6218 82.992 68.9924 84.4107 67.7338 85.328C66.4964 86.2453 64.7044 86.704 62.3578 86.704H60.2138V84.016H61.8458C62.8911 84.016 63.6911 83.7707 64.2458 83.28C64.8004 82.7893 65.0778 82.0747 65.0778 81.136C65.0778 80.24 64.8218 79.5573 64.3098 79.088C63.8191 78.6187 63.0938 78.384 62.1338 78.384H58.9658V91.312H61.2058V94H52.5018ZM69.908 94V91.312H71.988V78.384H69.908V75.696H86.74V81.68H83.892V78.384H76.404V83.28H80.244V81.36H82.452V87.856H80.276V85.872H76.404V91.28H84.02V87.76H86.9V94H69.908ZM87.9713 94V91.312H90.0833V78.384H87.9713V75.696H95.1713L103.843 88.432V78.384H101.603V75.696H108.963V78.384H106.883V94H102.467L93.0593 80.144V91.312H95.2993V94H87.9713ZM117.569 94V91.312H119.649V78.384H117.569V75.696H126.145V78.384H124.033V91.312H126.145V94H117.569ZM127.19 94V91.312H129.302V78.384H127.19V75.696H134.39L143.062 88.432V78.384H140.822V75.696H148.182V78.384H146.102V94H141.686L132.278 80.144V91.312H134.518V94H127.19ZM148.659 94V91.312H150.771V78.384H148.659V75.696H155.859L164.531 88.432V78.384H162.291V75.696H169.651V78.384H167.571V94H163.155L153.747 80.144V91.312H155.987V94H148.659ZM180.24 94.352C178.682 94.352 177.274 94.1173 176.016 93.648C174.757 93.1787 173.68 92.5173 172.784 91.664C171.888 90.8107 171.194 89.808 170.704 88.656C170.234 87.504 170 86.256 170 84.912C170 83.5467 170.234 82.288 170.704 81.136C171.194 79.9627 171.888 78.9493 172.784 78.096C173.68 77.2427 174.757 76.5813 176.016 76.112C177.274 75.6213 178.682 75.376 180.24 75.376C181.776 75.376 183.173 75.6213 184.432 76.112C185.69 76.5813 186.768 77.2427 187.664 78.096C188.56 78.9493 189.242 79.9627 189.712 81.136C190.202 82.288 190.448 83.536 190.448 84.88C190.448 86.2453 190.202 87.504 189.712 88.656C189.242 89.808 188.56 90.8107 187.664 91.664C186.768 92.5173 185.69 93.1787 184.432 93.648C183.173 94.1173 181.776 94.352 180.24 94.352ZM180.24 91.28C181.093 91.28 181.861 91.12 182.544 90.8C183.248 90.4587 183.845 90 184.336 89.424C184.826 88.848 185.2 88.176 185.456 87.408C185.712 86.6187 185.84 85.7547 185.84 84.816C185.84 83.8987 185.712 83.0453 185.456 82.256C185.2 81.4667 184.826 80.784 184.336 80.208C183.845 79.632 183.248 79.1947 182.544 78.896C181.861 78.576 181.093 78.416 180.24 78.416C179.344 78.416 178.554 78.576 177.872 78.896C177.189 79.216 176.602 79.664 176.112 80.24C175.621 80.816 175.248 81.4987 174.992 82.288C174.736 83.056 174.608 83.9093 174.608 84.848C174.608 85.7653 174.736 86.6187 174.992 87.408C175.248 88.176 175.621 88.8587 176.112 89.456C176.602 90.032 177.189 90.48 177.872 90.8C178.554 91.12 179.344 91.28 180.24 91.28ZM199.029 94L192.149 78.384H190.261V75.696H198.965V78.384H196.725L200.917 89.2L205.013 78.384H202.805V75.696H210.581V78.384H208.725L202.261 94H199.029ZM209.862 94V91.312H211.91L216.678 78.384H214.79V75.696H226.086V78.384H224.198L229.062 91.312H231.014V94H222.374V91.312H224.55L223.238 87.312H217.222L215.878 91.312H217.894V94H209.862ZM217.99 84.752H222.438L220.358 78.416H220.198L217.99 84.752ZM235.221 94V91.312H237.429V78.32H233.557V82.32H230.613V75.696H248.565V82.32H245.653V78.32H241.813V91.312H244.053V94H235.221ZM249.006 94V91.312H251.086V78.384H249.006V75.696H257.582V78.384H255.47V91.312H257.582V94H249.006ZM268.74 94.352C267.182 94.352 265.774 94.1173 264.516 93.648C263.257 93.1787 262.18 92.5173 261.284 91.664C260.388 90.8107 259.694 89.808 259.204 88.656C258.734 87.504 258.5 86.256 258.5 84.912C258.5 83.5467 258.734 82.288 259.204 81.136C259.694 79.9627 260.388 78.9493 261.284 78.096C262.18 77.2427 263.257 76.5813 264.516 76.112C265.774 75.6213 267.182 75.376 268.74 75.376C270.276 75.376 271.673 75.6213 272.932 76.112C274.19 76.5813 275.268 77.2427 276.164 78.096C277.06 78.9493 277.742 79.9627 278.212 81.136C278.702 82.288 278.948 83.536 278.948 84.88C278.948 86.2453 278.702 87.504 278.212 88.656C277.742 89.808 277.06 90.8107 276.164 91.664C275.268 92.5173 274.19 93.1787 272.932 93.648C271.673 94.1173 270.276 94.352 268.74 94.352ZM268.74 91.28C269.593 91.28 270.361 91.12 271.044 90.8C271.748 90.4587 272.345 90 272.836 89.424C273.326 88.848 273.7 88.176 273.956 87.408C274.212 86.6187 274.34 85.7547 274.34 84.816C274.34 83.8987 274.212 83.0453 273.956 82.256C273.7 81.4667 273.326 80.784 272.836 80.208C272.345 79.632 271.748 79.1947 271.044 78.896C270.361 78.576 269.593 78.416 268.74 78.416C267.844 78.416 267.054 78.576 266.372 78.896C265.689 79.216 265.102 79.664 264.612 80.24C264.121 80.816 263.748 81.4987 263.492 82.288C263.236 83.056 263.108 83.9093 263.108 84.848C263.108 85.7653 263.236 86.6187 263.492 87.408C263.748 88.176 264.121 88.8587 264.612 89.456C265.102 90.032 265.689 90.48 266.372 90.8C267.054 91.12 267.844 91.28 268.74 91.28ZM279.721 94V91.312H281.833V78.384H279.721V75.696H286.921L295.593 88.432V78.384H293.353V75.696H300.713V78.384H298.633V94H294.217L284.809 80.144V91.312H287.049V94H279.721Z" fill="white"/>
<mask id="mask6_797_187" style="mask-type:luminance" maskUnits="userSpaceOnUse" x="93" y="212" width="139" height="60">
<path d="M93 212.746H232V271.025H93V212.746Z" fill="white"/>
</mask>
<g mask="url(#mask6_797_187)">
<path d="M117.13 213.619C117.106 213.661 117.083 213.709 117.059 213.752C117.083 213.7 117.111 213.657 117.13 213.619ZM207.87 213.623C207.889 213.657 207.913 213.7 207.937 213.747C207.917 213.704 207.894 213.661 207.87 213.623ZM230.213 264.481H175.228C182.543 262.422 191.875 260.845 202.908 259.83C216.997 258.528 228.969 258.6 229.088 258.6C229.093 258.6 229.098 258.6 229.098 258.6C230.079 258.6 230.875 257.809 230.885 256.822C230.89 255.836 230.098 255.025 229.112 255.021C228.993 255.021 216.873 254.944 202.613 256.26C194.22 257.032 186.723 258.128 180.337 259.525C176.815 260.292 173.621 261.15 170.767 262.098C179.493 255.554 191.518 252.28 201.116 250.645C214.509 248.367 226.171 248.71 226.796 248.73C226.824 248.73 226.853 248.734 226.886 248.734C227.858 248.734 228.65 247.948 228.669 246.976C228.673 246.594 228.564 246.242 228.368 245.946C227.706 244.912 208.313 214.333 207.865 213.614C207.755 213.437 207.617 213.28 207.455 213.147C207.031 212.808 206.473 212.68 205.944 212.799L200.421 214.062C199.463 214.281 198.857 215.239 199.077 216.206C199.296 217.169 200.254 217.774 201.212 217.555L205.511 216.573C205.573 216.678 205.644 216.788 205.72 216.902C206.278 217.789 207.083 219.057 208.046 220.577C209.972 223.613 212.54 227.659 215.105 231.71C217.673 235.761 220.242 239.808 222.168 242.844C222.706 243.687 223.188 244.45 223.612 245.117C219.056 245.141 210.358 245.446 200.583 247.104C192.295 248.51 184.969 250.607 178.821 253.338C172.916 255.96 168.069 259.177 164.361 262.937L164.375 245.141C164.38 244.149 163.579 243.349 162.598 243.344C162.593 243.344 162.593 243.344 162.593 243.344C161.611 243.344 160.81 244.145 160.81 245.136L160.796 262.908C157.122 259.158 152.303 255.95 146.412 253.338C140.26 250.607 132.915 248.51 124.584 247.104C114.747 245.441 105.973 245.141 101.388 245.112C101.812 244.45 102.294 243.687 102.827 242.844C104.758 239.808 107.322 235.761 109.891 231.71C112.46 227.659 115.028 223.613 116.954 220.577C117.917 219.057 118.717 217.789 119.28 216.902C119.385 216.74 119.475 216.593 119.561 216.459L124.565 217.064C125.542 217.179 126.429 216.478 126.548 215.496C126.662 214.515 125.966 213.623 124.989 213.504L118.87 212.765C118.365 212.708 117.855 212.866 117.473 213.204C117.34 213.323 117.226 213.461 117.135 213.614C116.692 214.324 97.2989 244.907 96.6269 245.946C96.4363 246.242 96.3219 246.594 96.3314 246.976C96.3505 247.948 97.1416 248.734 98.1139 248.734C98.1425 248.734 98.1759 248.73 98.2045 248.73C98.824 248.71 110.591 248.367 124.055 250.645C133.816 252.299 146.06 255.631 154.758 262.336C151.765 261.293 148.366 260.354 144.582 259.525C138.234 258.133 130.766 257.032 122.382 256.26C108.151 254.944 96.0073 255.021 95.8834 255.021C94.9016 255.025 94.1105 255.836 94.1152 256.822C94.1248 257.809 94.9207 258.6 95.8977 258.6C95.9025 258.6 95.9073 258.6 95.912 258.6C96.0312 258.6 108.027 258.528 122.087 259.83C133.106 260.845 142.395 262.422 149.644 264.481H94.7825C93.8007 264.481 93 265.287 93 266.273C93 267.264 93.8007 268.065 94.7825 268.065H153.771V269.233C153.771 270.219 154.567 271.025 155.554 271.025H168.998C169.985 271.025 170.786 270.219 170.786 269.233V268.065H230.213C231.199 268.065 232 267.264 232 266.273C232 265.287 231.199 264.481 230.213 264.481Z" fill="#B5DF9C"/>
</g>
<path d="M197.751 173.579C197.971 173.579 198.185 173.541 198.39 173.455L201.04 172.388C201.464 172.216 201.798 171.887 201.979 171.468C202.16 171.044 202.165 170.572 201.993 170.148C201.731 169.49 201.107 169.066 200.396 169.066C200.182 169.066 199.968 169.109 199.763 169.19L197.108 170.257C196.231 170.61 195.802 171.616 196.155 172.497C196.417 173.155 197.041 173.579 197.751 173.579Z" fill="#B5DF9C"/>
<path d="M204.009 171.058C204.228 171.058 204.443 171.015 204.648 170.934L205.729 170.496C206.606 170.143 207.035 169.137 206.683 168.256C206.421 167.598 205.796 167.174 205.091 167.174C204.872 167.174 204.652 167.217 204.447 167.298L203.37 167.736C202.489 168.089 202.064 169.095 202.417 169.976C202.679 170.634 203.304 171.058 204.009 171.058Z" fill="#B5DF9C"/>
<path d="M176.782 152.614C176.996 152.704 177.225 152.752 177.458 152.752C178.145 152.752 178.764 152.342 179.036 151.704L179.837 149.821C180.018 149.397 180.023 148.93 179.851 148.501C179.679 148.072 179.355 147.738 178.931 147.557C178.717 147.467 178.493 147.419 178.259 147.419C177.573 147.419 176.953 147.829 176.682 148.467L175.876 150.35C175.7 150.774 175.695 151.246 175.862 151.67C176.033 152.099 176.362 152.433 176.782 152.614Z" fill="#B5DF9C"/>
<path d="M179.45 146.342C179.664 146.432 179.888 146.48 180.122 146.48C180.813 146.48 181.432 146.07 181.699 145.436L182.143 144.402C182.324 143.978 182.328 143.506 182.157 143.082C181.985 142.653 181.656 142.319 181.237 142.138C181.023 142.048 180.794 142 180.565 142C179.874 142 179.254 142.41 178.983 143.044L178.544 144.083C178.173 144.955 178.578 145.97 179.45 146.342Z" fill="#B5DF9C"/>
<path d="M199.778 200.126L198.105 199.411C197.891 199.321 197.662 199.273 197.433 199.273C196.742 199.273 196.122 199.683 195.851 200.321C195.674 200.746 195.67 201.213 195.836 201.637C196.008 202.066 196.337 202.399 196.756 202.581L198.429 203.3C198.644 203.391 198.868 203.438 199.101 203.438C199.787 203.438 200.412 203.024 200.679 202.39C201.05 201.518 200.645 200.503 199.778 200.126Z" fill="#B5DF9C"/>
<path d="M205.377 202.533L203.952 201.923C203.737 201.827 203.513 201.78 203.28 201.78C202.593 201.78 201.974 202.194 201.702 202.828C201.521 203.252 201.516 203.72 201.688 204.148C201.859 204.573 202.183 204.911 202.608 205.092L204.028 205.702C204.242 205.793 204.471 205.84 204.705 205.84C205.391 205.84 206.01 205.431 206.282 204.792C206.463 204.368 206.468 203.901 206.296 203.472C206.125 203.048 205.801 202.714 205.377 202.533Z" fill="#B5DF9C"/>
<path d="M185.671 164.562C186.128 164.562 186.557 164.386 186.881 164.057L191.705 159.22C192.372 158.548 192.372 157.452 191.705 156.78C191.38 156.456 190.947 156.274 190.489 156.274C190.032 156.274 189.598 156.456 189.274 156.78L184.456 161.622C184.131 161.946 183.955 162.38 183.955 162.842C183.955 163.299 184.131 163.733 184.456 164.057C184.78 164.386 185.213 164.562 185.671 164.562Z" fill="#B5DF9C"/>
<path d="M162.565 154.954C163.514 154.954 164.281 154.182 164.281 153.228V146.384C164.281 145.436 163.514 144.659 162.565 144.659C161.622 144.659 160.85 145.436 160.85 146.384V153.228C160.85 154.182 161.622 154.954 162.565 154.954Z" fill="#B5DF9C"/>
<path d="M195.239 187.763H202.055C203.003 187.763 203.77 186.991 203.77 186.042C203.77 185.089 203.003 184.317 202.055 184.317H195.239C194.291 184.317 193.523 185.089 193.523 186.042C193.523 186.991 194.291 187.763 195.239 187.763Z" fill="#B5DF9C"/>
<path d="M123.959 172.388L126.609 173.46C126.814 173.541 127.029 173.584 127.248 173.584C127.953 173.584 128.582 173.16 128.844 172.502C129.011 172.073 129.006 171.606 128.83 171.182C128.649 170.758 128.315 170.429 127.891 170.257L125.237 169.19C125.032 169.109 124.817 169.066 124.598 169.066C123.893 169.066 123.268 169.49 123.006 170.148C122.834 170.577 122.839 171.044 123.02 171.468C123.201 171.892 123.535 172.216 123.959 172.388Z" fill="#B5DF9C"/>
<path d="M119.27 170.5L120.352 170.934C120.557 171.015 120.771 171.058 120.991 171.058C121.696 171.058 122.32 170.634 122.582 169.976C122.935 169.095 122.511 168.089 121.629 167.736L120.547 167.298C120.342 167.217 120.128 167.174 119.909 167.174C119.208 167.174 118.579 167.598 118.317 168.256C117.964 169.137 118.393 170.143 119.27 170.5Z" fill="#B5DF9C"/>
<path d="M145.151 148.501C144.979 148.93 144.984 149.397 145.165 149.821L145.966 151.704C146.237 152.342 146.857 152.752 147.543 152.752C147.777 152.752 148.005 152.704 148.22 152.614C148.639 152.433 148.968 152.099 149.135 151.67C149.307 151.246 149.302 150.774 149.121 150.35L148.32 148.467C148.048 147.829 147.429 147.419 146.742 147.419C146.509 147.419 146.28 147.467 146.066 147.557C145.646 147.738 145.322 148.072 145.151 148.501Z" fill="#B5DF9C"/>
<path d="M143.295 145.436C143.566 146.07 144.186 146.48 144.877 146.48C145.111 146.48 145.335 146.432 145.549 146.342C146.421 145.97 146.826 144.955 146.455 144.083L146.016 143.044C145.744 142.41 145.125 142 144.434 142C144.205 142 143.976 142.048 143.762 142.138C143.342 142.319 143.014 142.653 142.842 143.082C142.67 143.506 142.675 143.978 142.856 144.402L143.295 145.436Z" fill="#B5DF9C"/>
<path d="M127.567 199.273C127.334 199.273 127.11 199.321 126.895 199.411L125.222 200.126C124.355 200.503 123.95 201.518 124.317 202.39C124.589 203.024 125.208 203.438 125.899 203.438C126.133 203.438 126.357 203.391 126.571 203.3L128.244 202.581C128.664 202.399 128.992 202.066 129.159 201.637C129.331 201.213 129.326 200.741 129.145 200.321C128.878 199.683 128.258 199.273 127.567 199.273Z" fill="#B5DF9C"/>
<path d="M121.715 201.78C121.487 201.78 121.258 201.827 121.043 201.918L119.623 202.533C119.199 202.714 118.875 203.048 118.703 203.472C118.532 203.901 118.537 204.368 118.718 204.792C118.989 205.431 119.609 205.84 120.295 205.84C120.529 205.84 120.757 205.793 120.967 205.702L122.392 205.092C122.816 204.911 123.14 204.573 123.312 204.148C123.484 203.72 123.479 203.252 123.298 202.828C123.026 202.194 122.407 201.78 121.715 201.78Z" fill="#B5DF9C"/>
<path d="M134.513 215.806C134.97 215.806 135.399 215.63 135.723 215.301L140.546 210.463C141.214 209.791 141.214 208.695 140.546 208.023C140.222 207.699 139.789 207.518 139.331 207.518C138.874 207.518 138.445 207.699 138.12 208.023L133.297 212.866C132.973 213.19 132.797 213.623 132.797 214.081C132.797 214.543 132.973 214.977 133.297 215.301C133.621 215.63 134.05 215.806 134.513 215.806Z" fill="#B5DF9C"/>
<path d="M188.009 208.023C187.68 207.699 187.251 207.518 186.794 207.518C186.336 207.518 185.903 207.699 185.579 208.023C184.911 208.695 184.911 209.791 185.579 210.463L190.402 215.301C190.726 215.63 191.155 215.806 191.612 215.806C192.07 215.806 192.504 215.63 192.828 215.301C193.152 214.977 193.328 214.543 193.328 214.086C193.328 213.623 193.152 213.19 192.828 212.866L188.009 208.023Z" fill="#B5DF9C"/>
<path d="M138.12 164.057C138.445 164.386 138.874 164.562 139.331 164.562C139.789 164.562 140.222 164.386 140.546 164.057C140.87 163.733 141.047 163.299 141.047 162.842C141.047 162.38 140.87 161.946 140.546 161.622L135.723 156.78C135.399 156.456 134.97 156.274 134.513 156.274C134.055 156.274 133.621 156.456 133.297 156.78C132.63 157.452 132.63 158.548 133.297 159.22L138.12 164.057Z" fill="#B5DF9C"/>
<path d="M121.23 186.042C121.23 186.991 121.998 187.763 122.946 187.763H129.762C130.71 187.763 131.477 186.991 131.477 186.042C131.477 185.089 130.71 184.317 129.762 184.317H122.946C121.998 184.317 121.23 185.089 121.23 186.042Z" fill="#B5DF9C"/>
<path d="M162.56 161.302C175.967 161.302 186.871 172.254 186.871 185.718C186.871 192.043 184.474 198.038 180.123 202.6C177.32 205.221 175.223 207.952 173.898 210.706C172.874 212.832 172.693 214.209 172.678 214.362C172.678 214.372 172.673 214.386 172.673 214.395L172.669 214.51C172.669 214.519 172.669 214.524 172.669 214.534V214.543C172.669 214.548 172.664 214.553 172.664 214.557C172.664 215.177 172.164 215.682 171.544 215.682H153.571C152.961 215.682 152.456 215.182 152.451 214.567C152.456 214.229 152.389 213.008 151.465 211.026C150.25 208.419 148.076 205.593 145.016 202.623C140.651 198.019 138.244 192.014 138.244 185.718C138.244 172.254 149.153 161.302 162.56 161.302ZM171.048 220.634L169.285 220.667C168.336 220.667 167.569 221.439 167.569 222.393C167.569 223.341 168.336 224.113 169.285 224.113L171.048 224.08V225.433H169.49C168.546 225.433 167.774 226.21 167.774 227.159C167.774 228.107 168.546 228.884 169.49 228.884H171.048V229.465C171.048 229.847 170.739 230.156 170.362 230.156H167.588C166.645 230.156 165.872 230.929 165.872 231.882C165.872 232.411 166.111 232.883 166.487 233.202L164.381 234.765H160.759L159.21 233.626L163.385 233.621C164.333 233.621 165.105 232.849 165.105 231.901C165.105 230.948 164.333 230.176 163.385 230.176L154.768 230.171C154.386 230.171 154.077 229.861 154.077 229.48V228.903H164.471C165.42 228.903 166.187 228.126 166.187 227.178C166.187 226.229 165.42 225.452 164.471 225.452L154.077 225.448V224.104H164.581C165.525 224.104 166.297 223.332 166.297 222.383C166.297 221.43 165.525 220.658 164.581 220.658L154.077 220.648V219.557C154.081 219.543 154.081 219.528 154.081 219.514C154.081 219.49 154.081 219.471 154.077 219.452V219.128H171.048V220.634ZM136.995 174.871C135.546 178.307 134.812 181.958 134.812 185.718C134.812 192.92 137.562 199.778 142.557 205.025C142.557 205.03 142.562 205.03 142.562 205.035L142.595 205.068C142.6 205.073 142.605 205.073 142.605 205.078C145.932 208.3 147.509 210.759 148.248 212.255C148.944 213.671 149.01 214.453 149.02 214.553V214.557C149.02 215.901 149.62 217.183 150.64 218.051V219.528C150.64 219.552 150.64 219.581 150.645 219.605V229.48C150.645 230.781 151.236 231.977 152.261 232.763C152.366 232.844 154.591 234.503 158.881 237.691L159.143 237.887C159.438 238.106 159.801 238.225 160.168 238.225H164.929C165.21 238.225 165.486 238.159 165.734 238.025C165.825 237.982 165.906 237.93 165.982 237.873L166.244 237.677C170.534 234.489 172.759 232.83 172.869 232.749C173.894 231.963 174.48 230.767 174.48 229.465V218.051C175.471 217.212 176.057 216.006 176.095 214.705C176.153 214.4 176.362 213.461 177.058 212.055C177.854 210.454 179.436 207.942 182.491 205.097C182.496 205.092 182.501 205.092 182.501 205.087L182.553 205.04C182.558 205.035 182.563 205.03 182.568 205.025C187.558 199.811 190.308 192.953 190.308 185.718C190.308 181.958 189.574 178.307 188.125 174.871C186.728 171.554 184.727 168.575 182.177 166.016C179.632 163.456 176.663 161.45 173.36 160.044C169.938 158.59 166.306 157.856 162.56 157.856C158.814 157.856 155.182 158.59 151.76 160.044C148.453 161.45 145.488 163.456 142.939 166.016C140.393 168.575 138.392 171.554 136.995 174.871Z" fill="#B5DF9C"/>
<path d="M147.808 185.756C148.79 185.756 149.59 184.956 149.59 183.969C149.59 177.297 154.995 171.873 161.634 171.873C162.621 171.873 163.416 171.072 163.416 170.081C163.416 169.095 162.621 168.289 161.634 168.289C157.464 168.289 153.546 169.924 150.596 172.883C147.646 175.843 146.025 179.78 146.025 183.969C146.025 184.956 146.821 185.756 147.808 185.756Z" fill="#B5DF9C"/>
</svg>
