<svg width="330" height="346" viewBox="0 0 330 346" fill="none" xmlns="http://www.w3.org/2000/svg">
<mask id="mask0_797_186" style="mask-type:luminance" maskUnits="userSpaceOnUse" x="313" y="18" width="17" height="302">
<path d="M313.918 18.1064H329.996V319.462H313.918V18.1064Z" fill="white"/>
</mask>
<g mask="url(#mask0_797_186)">
<path d="M313.99 319.453H329.976V18.2051H313.99V319.453Z" fill="#99FF52"/>
<path d="M313.99 319.453H329.976V18.2051H313.99V319.453Z" fill="#99FF52"/>
</g>
<mask id="mask1_797_186" style="mask-type:luminance" maskUnits="userSpaceOnUse" x="230" y="321" width="100" height="10">
<path d="M230.465 321.616H330V330.667H230.465V321.616Z" fill="white"/>
</mask>
<g mask="url(#mask1_797_186)">
<path d="M330.001 321.848L323.243 330.332H230.6L237.474 321.702L330.001 321.848Z" fill="#99FF52"/>
</g>
<path d="M291.85 330.332L287.082 336.314H189.38L184.488 330.173L291.85 330.332Z" fill="#99FF52"/>
<path d="M184.467 26.53L191.225 18.0464H283.868L276.993 26.6762L184.467 26.53Z" fill="#99FF52"/>
<mask id="mask2_797_186" style="mask-type:luminance" maskUnits="userSpaceOnUse" x="222" y="11" width="108" height="8">
<path d="M222.564 11.6396H329.998V18.5409H222.564V11.6396Z" fill="white"/>
</mask>
<g mask="url(#mask2_797_186)">
<path d="M222.619 18.0465L227.384 12.0654H325.086L329.977 18.2056L222.619 18.0465Z" fill="#99FF52"/>
</g>
<mask id="mask3_797_186" style="mask-type:luminance" maskUnits="userSpaceOnUse" x="0" y="4" width="133" height="138">
<path d="M0 4.38135H132.712V141.977H0V4.38135Z" fill="white"/>
</mask>
<g mask="url(#mask3_797_186)">
<path d="M131.886 16.4642L123.943 26.4313H11.82L11.7961 141.809L6.7575 135.484V73.2352L0.0234375 64.786V25.4466L8.02142 13.5919H65.9563L72.8239 4.9707H101.606L110.916 16.4642H131.886Z" fill="#99FF52"/>
</g>
<mask id="mask4_797_186" style="mask-type:luminance" maskUnits="userSpaceOnUse" x="73" y="0" width="163" height="14">
<path d="M73.9609 0H235.304V13.1877H73.9609V0Z" fill="white"/>
</mask>
<g mask="url(#mask4_797_186)">
<path d="M234.167 12.9598H114.174L114.026 12.7792L104.843 1.24696H74.8175C74.5434 1.24696 74.3242 0.971767 74.3242 0.623479C74.3242 0.279491 74.5434 0 74.8175 0H105.258L105.405 0.180594L114.585 11.7085H234.167C234.445 11.7085 234.664 11.988 234.664 12.332C234.664 12.6803 234.445 12.9598 234.167 12.9598Z" fill="#99FF52"/>
</g>
<path d="M238.168 332.723H11.2482C10.1966 332.723 9.34375 331.657 9.34375 330.332V82.695C9.34375 81.375 10.1966 80.3086 11.2482 80.3086C12.2998 80.3086 13.1526 81.375 13.1526 82.695V327.946H238.168C239.22 327.946 240.069 329.012 240.069 330.332C240.069 331.657 239.22 332.723 238.168 332.723Z" fill="#99FF52"/>
<path d="M11.2481 132.079L16.2593 125.788V58.8481L11.207 52.5059L11.2481 132.079Z" fill="#99FF52"/>
<path d="M10.008 41.7514L24.466 23.606H8.32617L10.008 41.7514Z" fill="#99FF52"/>
<mask id="mask5_797_186" style="mask-type:luminance" maskUnits="userSpaceOnUse" x="0" y="99" width="165" height="247">
<path d="M0.302734 99.0469H164.277V345.089H0.302734V99.0469Z" fill="white"/>
</mask>
<g mask="url(#mask5_797_186)">
<path d="M95.1514 344.896H10.9345L0.648438 331.975V112.652L10.544 100.221C10.8043 99.8984 11.2222 99.8984 11.4791 100.221C11.7394 100.548 11.7394 101.072 11.4791 101.395L1.96716 113.335V331.295L11.4825 343.236H94.5999L97.6553 339.392H155.34L163.03 329.747C163.287 329.425 163.708 329.425 163.965 329.747C164.222 330.07 164.222 330.599 163.965 330.921L155.885 341.056H98.2067L95.1514 344.896Z" fill="#99FF52"/>
</g>
<path d="M315.633 163.721C315.465 163.721 315.294 163.64 315.167 163.476L307.995 154.472V114.217L310.917 110.549V57.9235L308.029 54.2987V27.0204L304.457 22.5356H276.661C276.294 22.5356 275.996 22.1615 275.996 21.7015C275.996 21.2457 276.294 20.8716 276.661 20.8716H305.001L309.351 26.3324V53.615L312.239 57.2398V111.233L309.32 114.901V153.789L316.102 162.303C316.359 162.629 316.359 163.154 316.102 163.476C315.972 163.64 315.804 163.721 315.633 163.721Z" fill="#99FF52"/>
<path d="M223.768 319.535H228.929V326.015H223.768V319.535Z" fill="#99FF52"/>
<path d="M217.068 319.535H222.234V326.015H217.068V319.535Z" fill="#99FF52"/>
<path d="M210.373 319.535H215.538V326.015H210.373V319.535Z" fill="#99FF52"/>
<path d="M203.674 319.535H208.839V326.015H203.674V319.535Z" fill="#99FF52"/>
<path d="M196.98 319.535H202.142V326.015H196.98V319.535Z" fill="#99FF52"/>
<path d="M190.279 319.535H195.445V326.015H190.279V319.535Z" fill="#99FF52"/>
<path d="M183.584 319.535H188.749V326.015H183.584V319.535Z" fill="#99FF52"/>
<path d="M176.887 319.535H182.052V326.015H176.887V319.535Z" fill="#99FF52"/>
<path d="M170.191 319.535H175.353V326.015H170.191V319.535Z" fill="#99FF52"/>
<path d="M163.492 319.535H168.657V326.015H163.492V319.535Z" fill="#99FF52"/>
<path d="M156.795 319.535H161.96V326.015H156.795V319.535Z" fill="#99FF52"/>
<path d="M150.098 319.535H155.263V326.015H150.098V319.535Z" fill="#99FF52"/>
<path d="M143.4 319.535H148.566V326.015H143.4V319.535Z" fill="#99FF52"/>
<path d="M136.705 319.535H141.867V326.015H136.705V319.535Z" fill="#99FF52"/>
<path d="M130.006 319.535H135.171V326.015H130.006V319.535Z" fill="#99FF52"/>
<path d="M123.309 319.535H128.474V326.015H123.309V319.535Z" fill="#99FF52"/>
<path d="M116.613 319.535H121.779V326.015H116.613V319.535Z" fill="#99FF52"/>
<path d="M109.918 319.535H115.08V326.015H109.918V319.535Z" fill="#99FF52"/>
<path d="M103.221 319.535H108.383V326.015H103.221V319.535Z" fill="#99FF52"/>
<path d="M96.5215 319.535H101.687V326.015H96.5215V319.535Z" fill="#99FF52"/>
<path d="M89.8242 319.535H94.9895V326.015H89.8242V319.535Z" fill="#99FF52"/>
<path d="M83.127 319.535H88.2888V326.015H83.127V319.535Z" fill="#99FF52"/>
<path d="M76.4316 319.535H81.5935V326.015H76.4316V319.535Z" fill="#99FF52"/>
<path d="M69.7305 319.535H74.8958V326.015H69.7305V319.535Z" fill="#99FF52"/>
<path d="M63.0352 319.535H68.2004V326.015H63.0352V319.535Z" fill="#99FF52"/>
<path d="M56.3379 319.535H61.4998V326.015H56.3379V319.535Z" fill="#99FF52"/>
<path d="M49.6426 319.535H54.8044V326.015H49.6426V319.535Z" fill="#99FF52"/>
<path d="M42.9434 319.535H48.1087V326.015H42.9434V319.535Z" fill="#99FF52"/>
<path d="M36.2461 319.535H41.4114V326.015H36.2461V319.535Z" fill="#99FF52"/>
<path d="M29.5488 319.535H34.7141V326.015H29.5488V319.535Z" fill="#99FF52"/>
<path d="M22.8516 319.535H28.0134V326.015H22.8516V319.535Z" fill="#99FF52"/>
<path d="M16.1562 319.535H21.3181V326.015H16.1562V319.535Z" fill="#99FF52"/>
<path d="M9.76101 59.8714C9.27462 59.8714 8.78824 59.6392 8.41488 59.1749C7.6716 58.2418 7.6716 56.7282 8.41488 55.7952L25.9762 33.7455C26.3324 33.2983 26.8188 33.0489 27.3223 33.0489H95.9783L105.829 20.6696C106.189 20.2224 106.672 19.9688 107.179 19.9688H206.532C207.584 19.9688 208.433 21.0394 208.433 22.3595C208.433 23.6795 207.584 24.7459 206.532 24.7459H107.963L98.1088 37.1252C97.7525 37.5724 97.2662 37.8218 96.7626 37.8218H28.1101L11.1071 59.1749C10.7338 59.6392 10.2474 59.8714 9.76101 59.8714Z" fill="#99FF52"/>
<path d="M35.8455 90V87.312H37.9255V74.384H35.8455V71.696H52.6775V77.68H49.8295V74.384H42.3415V79.28H46.1815V77.36H48.3895V83.856H46.2135V81.872H42.3415V87.28H49.9575V83.76H52.8375V90H35.8455ZM54.9088 90V87.312H57.0208V74.384H54.9088V71.696H62.1088L70.7808 84.432V74.384H68.5408V71.696H75.9008V74.384H73.8208V90H69.4048L59.9968 76.144V87.312H62.2368V90H54.9088ZM85.1855 90L78.3055 74.384H76.4175V71.696H85.1215V74.384H82.8815L87.0735 85.2L91.1695 74.384H88.9615V71.696H96.7375V74.384H94.8815L88.4175 90H85.1855ZM97.85 90V87.312H99.93V74.384H97.85V71.696H106.426V74.384H104.314V87.312H106.426V90H97.85ZM108.439 90V87.312H110.519V74.384H108.439V71.696H118.999C120.407 71.696 121.645 71.8773 122.711 72.24C123.778 72.6027 124.61 73.168 125.207 73.936C125.805 74.6827 126.103 75.664 126.103 76.88C126.103 77.712 125.954 78.4587 125.655 79.12C125.357 79.76 124.898 80.304 124.279 80.752C123.682 81.1787 122.925 81.5093 122.007 81.744L125.431 87.28H127.607V90H122.263L117.783 82.224H116.119V79.472H118.583C119.351 79.472 119.949 79.3547 120.375 79.12C120.823 78.864 121.143 78.5333 121.335 78.128C121.527 77.7227 121.623 77.2853 121.623 76.816C121.623 76.3467 121.517 75.9307 121.303 75.568C121.111 75.2053 120.802 74.9173 120.375 74.704C119.97 74.4907 119.458 74.384 118.839 74.384H114.903V87.312H116.919V90H108.439ZM139.146 90.352C137.588 90.352 136.18 90.1173 134.922 89.648C133.663 89.1787 132.586 88.5173 131.69 87.664C130.794 86.8107 130.1 85.808 129.61 84.656C129.14 83.504 128.906 82.256 128.906 80.912C128.906 79.5467 129.14 78.288 129.61 77.136C130.1 75.9627 130.794 74.9493 131.69 74.096C132.586 73.2427 133.663 72.5813 134.922 72.112C136.18 71.6213 137.588 71.376 139.146 71.376C140.682 71.376 142.079 71.6213 143.338 72.112C144.596 72.5813 145.674 73.2427 146.57 74.096C147.466 74.9493 148.148 75.9627 148.618 77.136C149.108 78.288 149.354 79.536 149.354 80.88C149.354 82.2453 149.108 83.504 148.618 84.656C148.148 85.808 147.466 86.8107 146.57 87.664C145.674 88.5173 144.596 89.1787 143.338 89.648C142.079 90.1173 140.682 90.352 139.146 90.352ZM139.146 87.28C139.999 87.28 140.767 87.12 141.45 86.8C142.154 86.4587 142.751 86 143.242 85.424C143.732 84.848 144.106 84.176 144.362 83.408C144.618 82.6187 144.746 81.7547 144.746 80.816C144.746 79.8987 144.618 79.0453 144.362 78.256C144.106 77.4667 143.732 76.784 143.242 76.208C142.751 75.632 142.154 75.1947 141.45 74.896C140.767 74.576 139.999 74.416 139.146 74.416C138.25 74.416 137.46 74.576 136.778 74.896C136.095 75.216 135.508 75.664 135.018 76.24C134.527 76.816 134.154 77.4987 133.898 78.288C133.642 79.056 133.514 79.9093 133.514 80.848C133.514 81.7653 133.642 82.6187 133.898 83.408C134.154 84.176 134.527 84.8587 135.018 85.456C135.508 86.032 136.095 86.48 136.778 86.8C137.46 87.12 138.25 87.28 139.146 87.28ZM151.128 90V87.312H153.24V74.384H151.128V71.696H158.328L167 84.432V74.384H164.76V71.696H172.12V74.384H170.04V90H165.624L156.216 76.144V87.312H158.456V90H151.128ZM173.596 90V87.312H175.612V74.384H173.596V71.696H181.596L186.332 82.608L190.908 71.696H198.716V74.384H196.668V87.312H198.716V90H190.492V87.312H192.476V75.536L186.716 89.2H184.924L179.068 75.536V87.312H181.052V90H173.596ZM200.533 90V87.312H202.613V74.384H200.533V71.696H217.365V77.68H214.517V74.384H207.029V79.28H210.869V77.36H213.077V83.856H210.901V81.872H207.029V87.28H214.645V83.76H217.525V90H200.533ZM219.596 90V87.312H221.708V74.384H219.596V71.696H226.796L235.468 84.432V74.384H233.228V71.696H240.588V74.384H238.508V90H234.092L224.684 76.144V87.312H226.924V90H219.596ZM246.033 90V87.312H248.241V74.32H244.369V78.32H241.425V71.696H259.377V78.32H256.465V74.32H252.625V87.312H254.865V90H246.033ZM259.987 90V87.312H262.035L266.803 74.384H264.915V71.696H276.211V74.384H274.323L279.187 87.312H281.139V90H272.499V87.312H274.675L273.363 83.312H267.347L266.003 87.312H268.019V90H259.987ZM268.115 80.752H272.563L270.483 74.416H270.323L268.115 80.752ZM282.346 90V87.312H284.426V74.224H282.346V71.696H290.89V74.224H288.81V87.312H294.762V82.192H297.833V90H282.346ZM75.2094 120V117.312H77.2894V104.384H75.2094V101.696H83.7854V104.384H81.6734V117.312H83.7854V120H75.2094ZM85.8306 120V117.312H87.9426V104.384H85.8306V101.696H93.0306L101.703 114.432V104.384H99.4626V101.696H106.823V104.384H104.743V120H100.327L90.9186 106.144V117.312H93.1586V120H85.8306ZM108.299 120V117.312H110.411V104.384H108.299V101.696H115.499L124.171 114.432V104.384H121.931V101.696H129.291V104.384H127.211V120H122.795L113.387 106.144V117.312H115.627V120H108.299ZM140.88 120.352C139.323 120.352 137.915 120.117 136.656 119.648C135.397 119.179 134.32 118.517 133.424 117.664C132.528 116.811 131.835 115.808 131.344 114.656C130.875 113.504 130.64 112.256 130.64 110.912C130.64 109.547 130.875 108.288 131.344 107.136C131.835 105.963 132.528 104.949 133.424 104.096C134.32 103.243 135.397 102.581 136.656 102.112C137.915 101.621 139.323 101.376 140.88 101.376C142.416 101.376 143.813 101.621 145.072 102.112C146.331 102.581 147.408 103.243 148.304 104.096C149.2 104.949 149.883 105.963 150.352 107.136C150.843 108.288 151.088 109.536 151.088 110.88C151.088 112.245 150.843 113.504 150.352 114.656C149.883 115.808 149.2 116.811 148.304 117.664C147.408 118.517 146.331 119.179 145.072 119.648C143.813 120.117 142.416 120.352 140.88 120.352ZM140.88 117.28C141.733 117.28 142.501 117.12 143.184 116.8C143.888 116.459 144.485 116 144.976 115.424C145.467 114.848 145.84 114.176 146.096 113.408C146.352 112.619 146.48 111.755 146.48 110.816C146.48 109.899 146.352 109.045 146.096 108.256C145.84 107.467 145.467 106.784 144.976 106.208C144.485 105.632 143.888 105.195 143.184 104.896C142.501 104.576 141.733 104.416 140.88 104.416C139.984 104.416 139.195 104.576 138.512 104.896C137.829 105.216 137.243 105.664 136.752 106.24C136.261 106.816 135.888 107.499 135.632 108.288C135.376 109.056 135.248 109.909 135.248 110.848C135.248 111.765 135.376 112.619 135.632 113.408C135.888 114.176 136.261 114.859 136.752 115.456C137.243 116.032 137.829 116.48 138.512 116.8C139.195 117.12 139.984 117.28 140.88 117.28ZM160.67 120L153.79 104.384H151.902V101.696H160.606V104.384H158.366L162.558 115.2L166.654 104.384H164.446V101.696H172.222V104.384H170.366L163.902 120H160.67ZM172.502 120V117.312H174.55L179.318 104.384H177.43V101.696H188.726V104.384H186.838L191.702 117.312H193.654V120H185.014V117.312H187.19L185.878 113.312H179.862L178.518 117.312H180.534V120H172.502ZM180.63 110.752H185.078L182.998 104.416H182.838L180.63 110.752ZM198.861 120V117.312H201.069V104.32H197.197V108.32H194.253V101.696H212.205V108.32H209.293V104.32H205.453V117.312H207.693V120H198.861ZM213.647 120V117.312H215.727V104.384H213.647V101.696H222.223V104.384H220.111V117.312H222.223V120H213.647ZM234.38 120.352C232.823 120.352 231.415 120.117 230.156 119.648C228.897 119.179 227.82 118.517 226.924 117.664C226.028 116.811 225.335 115.808 224.844 114.656C224.375 113.504 224.14 112.256 224.14 110.912C224.14 109.547 224.375 108.288 224.844 107.136C225.335 105.963 226.028 104.949 226.924 104.096C227.82 103.243 228.897 102.581 230.156 102.112C231.415 101.621 232.823 101.376 234.38 101.376C235.916 101.376 237.313 101.621 238.572 102.112C239.831 102.581 240.908 103.243 241.804 104.096C242.7 104.949 243.383 105.963 243.852 107.136C244.343 108.288 244.588 109.536 244.588 110.88C244.588 112.245 244.343 113.504 243.852 114.656C243.383 115.808 242.7 116.811 241.804 117.664C240.908 118.517 239.831 119.179 238.572 119.648C237.313 120.117 235.916 120.352 234.38 120.352ZM234.38 117.28C235.233 117.28 236.001 117.12 236.684 116.8C237.388 116.459 237.985 116 238.476 115.424C238.967 114.848 239.34 114.176 239.596 113.408C239.852 112.619 239.98 111.755 239.98 110.816C239.98 109.899 239.852 109.045 239.596 108.256C239.34 107.467 238.967 106.784 238.476 106.208C237.985 105.632 237.388 105.195 236.684 104.896C236.001 104.576 235.233 104.416 234.38 104.416C233.484 104.416 232.695 104.576 232.012 104.896C231.329 105.216 230.743 105.664 230.252 106.24C229.761 106.816 229.388 107.499 229.132 108.288C228.876 109.056 228.748 109.909 228.748 110.848C228.748 111.765 228.876 112.619 229.132 113.408C229.388 114.176 229.761 114.859 230.252 115.456C230.743 116.032 231.329 116.48 232.012 116.8C232.695 117.12 233.484 117.28 234.38 117.28ZM246.362 120V117.312H248.474V104.384H246.362V101.696H253.562L262.234 114.432V104.384H259.994V101.696H267.354V104.384H265.274V120H260.858L251.45 106.144V117.312H253.69V120H246.362Z" fill="white"/>
<mask id="mask6_797_186" style="mask-type:luminance" maskUnits="userSpaceOnUse" x="107" y="150" width="109" height="123">
<path d="M107 150H216V272.122H107V150Z" fill="white"/>
</mask>
<g mask="url(#mask6_797_186)">
<path d="M145.109 158.332C147.263 157.22 149.507 156.343 151.842 155.701C154.176 155.06 156.555 154.67 158.974 154.529C161.392 154.388 163.798 154.499 166.193 154.865C168.588 155.228 170.92 155.839 173.187 156.692C172.385 157.028 171.709 157.532 171.165 158.214C170.174 159.635 169.469 161.187 169.055 162.87C168.978 163.411 168.837 163.935 168.625 164.439C168.417 164.946 168.148 165.417 167.819 165.853C167.493 166.29 167.114 166.68 166.687 167.023C166.257 167.365 165.793 167.647 165.296 167.872C161.507 169.707 159.068 174.084 157.687 177.437C157.375 178.22 157.18 179.029 157.106 179.869C157.032 180.709 157.082 181.542 157.254 182.368C157.425 183.191 157.714 183.974 158.117 184.717C158.52 185.456 159.024 186.124 159.625 186.716C160.16 187.233 160.751 187.676 161.396 188.049C162.041 188.419 162.723 188.708 163.438 188.909C164.154 189.114 164.886 189.225 165.629 189.249C166.375 189.272 167.11 189.202 167.839 189.044C171.454 188.291 172.606 188.832 172.801 188.95C172.885 188.993 172.959 189.05 173.026 189.121C173.053 189.716 172.993 190.303 172.848 190.881C172.398 192.776 172.395 194.671 172.835 196.569C173.11 197.802 173.238 199.051 173.224 200.318C173.295 202.928 173.392 206.503 177.313 207.396C178.66 207.541 179.98 207.4 181.267 206.976C182.557 206.55 183.699 205.878 184.697 204.961C185.49 204.396 186.212 203.755 186.87 203.039C187.529 202.323 188.103 201.547 188.597 200.711C189.094 199.878 189.494 198.998 189.803 198.077C190.116 197.157 190.327 196.216 190.438 195.252C190.475 194.425 190.683 193.649 191.06 192.914C191.439 192.181 191.95 191.556 192.598 191.046C193.072 190.653 193.462 190.193 193.771 189.662C194.08 189.131 194.285 188.563 194.389 187.959C194.496 187.354 194.49 186.749 194.379 186.144C194.264 185.543 194.049 184.979 193.734 184.451L195.38 184.011C195.528 184.985 195.632 185.966 195.696 186.947C195.756 187.932 195.78 188.916 195.756 189.904C195.736 190.888 195.672 191.872 195.568 192.85C195.464 193.831 195.316 194.805 195.128 195.773C194.94 196.74 194.708 197.698 194.439 198.645C194.167 199.592 193.858 200.53 193.509 201.45C193.159 202.37 192.77 203.278 192.343 204.164C191.913 205.055 191.449 205.921 190.945 206.771C190.445 207.621 189.907 208.444 189.336 209.251C188.762 210.053 188.157 210.83 187.519 211.582C186.877 212.331 186.209 213.057 185.506 213.749C184.808 214.444 184.079 215.109 183.319 215.741C182.564 216.373 181.781 216.971 180.971 217.538C180.162 218.103 179.332 218.633 178.475 219.127C177.622 219.624 176.748 220.081 175.855 220.501C174.961 220.921 174.051 221.304 173.127 221.647C172.2 221.99 171.262 222.292 170.308 222.557C169.358 222.819 168.397 223.041 167.426 223.222C166.455 223.404 165.478 223.542 164.497 223.642C163.512 223.74 162.528 223.794 161.54 223.81C160.553 223.824 159.565 223.797 158.581 223.726C157.596 223.656 156.615 223.545 155.638 223.39C154.664 223.236 153.696 223.041 152.739 222.806C151.778 222.571 150.83 222.295 149.897 221.979C148.959 221.664 148.039 221.308 147.135 220.911C146.231 220.518 145.345 220.085 144.474 219.614C143.608 219.144 142.761 218.637 141.935 218.096C141.112 217.552 140.312 216.977 139.536 216.366C138.76 215.754 138.014 215.113 137.292 214.438C136.573 213.766 135.881 213.06 135.223 212.328C134.561 211.595 133.933 210.836 133.338 210.05C132.743 209.264 132.182 208.451 131.655 207.618C131.5 207.373 131.305 207.171 131.07 207.003C130.835 206.839 130.576 206.721 130.294 206.66C130.015 206.597 129.73 206.587 129.448 206.637C129.162 206.684 128.897 206.788 128.655 206.939C128.41 207.094 128.205 207.289 128.037 207.524C127.872 207.759 127.758 208.018 127.694 208.296C127.63 208.579 127.624 208.861 127.671 209.143C127.721 209.429 127.822 209.691 127.976 209.936C128.645 210.997 129.364 212.022 130.133 213.013C130.906 214.008 131.719 214.958 132.582 215.872C133.442 216.786 134.346 217.656 135.293 218.482C136.237 219.309 137.221 220.085 138.243 220.817C139.261 221.549 140.315 222.231 141.404 222.86C142.489 223.491 143.604 224.066 144.747 224.59C145.889 225.114 147.054 225.581 148.24 225.991C149.43 226.4 150.632 226.753 151.855 227.049C153.075 227.344 154.307 227.58 155.554 227.754C156.797 227.929 158.047 228.047 159.303 228.104C160.559 228.157 161.812 228.154 163.069 228.087C164.325 228.023 165.572 227.899 166.815 227.714C168.058 227.526 169.291 227.284 170.51 226.978C171.729 226.676 172.932 226.313 174.115 225.893C175.301 225.473 176.46 225 177.598 224.469C178.737 223.935 179.849 223.35 180.931 222.712C182.013 222.074 183.061 221.385 184.075 220.646C185.09 219.907 186.067 219.121 187.008 218.287C187.949 217.454 188.846 216.577 189.699 215.66C190.552 214.74 191.362 213.782 192.125 212.785C192.887 211.787 193.599 210.756 194.261 209.687C194.923 208.622 195.531 207.527 196.089 206.402C196.646 205.28 197.147 204.131 197.59 202.958C198.037 201.783 198.423 200.593 198.756 199.384C199.085 198.171 199.357 196.948 199.569 195.712C199.781 194.476 199.932 193.233 200.023 191.983C200.117 190.73 200.147 189.48 200.117 188.224C200.086 186.971 199.999 185.721 199.848 184.478C199.697 183.232 199.488 181.996 199.22 180.773C198.951 179.547 198.622 178.337 198.235 177.145C197.849 175.949 197.406 174.776 196.905 173.627C196.408 172.475 195.854 171.353 195.245 170.254C194.637 169.156 193.976 168.091 193.267 167.056C192.555 166.021 191.795 165.027 190.986 164.066C190.179 163.102 189.326 162.185 188.429 161.305C187.532 160.425 186.595 159.592 185.621 158.802C184.643 158.016 183.629 157.274 182.58 156.585C181.532 155.893 180.451 155.254 179.342 154.667C178.23 154.079 177.094 153.548 175.932 153.068C174.77 152.59 173.587 152.171 172.385 151.804C171.182 151.442 169.966 151.136 168.733 150.891C167.5 150.642 166.26 150.457 165.011 150.33C163.761 150.202 162.504 150.135 161.248 150.128C159.992 150.121 158.739 150.175 157.485 150.289C156.236 150.403 154.993 150.575 153.757 150.81C152.524 151.045 151.301 151.337 150.095 151.687C148.889 152.04 147.703 152.446 146.534 152.913C145.368 153.377 144.226 153.897 143.11 154.475C142.852 154.606 142.633 154.784 142.449 155.003C142.261 155.224 142.126 155.469 142.039 155.745C141.951 156.02 141.921 156.299 141.945 156.585C141.972 156.874 142.049 157.142 142.18 157.398C142.314 157.653 142.489 157.875 142.711 158.06C142.932 158.244 143.178 158.382 143.453 158.469C143.729 158.557 144.007 158.587 144.296 158.564C144.582 158.54 144.854 158.463 145.109 158.332ZM194.476 179.758L192.413 180.309C191.705 180.48 191.08 180.81 190.536 181.29C189.991 181.774 189.592 182.355 189.34 183.037C189.131 183.642 189.081 184.26 189.185 184.891C189.293 185.52 189.545 186.087 189.941 186.591C190.243 186.991 190.173 187.391 189.726 187.78C188.621 188.691 187.751 189.789 187.116 191.073C186.481 192.359 186.138 193.717 186.088 195.148C185.873 196.441 185.416 197.644 184.71 198.752C184.005 199.861 183.108 200.788 182.026 201.531C180.981 202.545 179.732 203.089 178.28 203.16C177.847 203.063 177.649 203.019 177.572 200.2C177.585 198.594 177.407 197.012 177.037 195.45C176.779 194.177 176.809 192.914 177.131 191.654C177.467 189.796 177.975 186.988 175.042 185.227C173.765 184.663 172.432 184.344 171.037 184.267C169.643 184.193 168.283 184.367 166.952 184.791C166.207 184.965 165.464 184.955 164.722 184.764C163.979 184.572 163.328 184.219 162.76 183.705C162.451 183.42 162.189 183.091 161.977 182.725C161.765 182.358 161.611 181.969 161.52 181.559C161.426 181.146 161.396 180.729 161.429 180.306C161.46 179.886 161.557 179.479 161.712 179.086C162.182 177.591 162.887 176.217 163.828 174.964C164.769 173.711 165.891 172.65 167.194 171.78C167.964 171.423 168.682 170.983 169.348 170.459C170.013 169.935 170.607 169.341 171.131 168.672C171.656 168.007 172.092 167.291 172.445 166.522C172.798 165.753 173.056 164.953 173.221 164.12C173.493 162.951 173.957 161.866 174.612 160.858C176.087 160.092 177.652 159.706 179.312 159.696C181.143 160.828 182.853 162.118 184.442 163.566C186.034 165.014 187.475 166.596 188.772 168.309C190.069 170.026 191.197 171.847 192.155 173.772C193.116 175.693 193.888 177.689 194.476 179.758ZM215.681 233.808C215.486 232.592 215.053 231.466 214.381 230.432C213.709 229.397 212.859 228.54 211.828 227.862C211.418 227.583 210.988 227.341 210.538 227.136C210.084 226.931 209.62 226.767 209.14 226.642C208.66 226.515 208.173 226.434 207.679 226.394C207.185 226.35 206.691 226.353 206.197 226.397C205.703 226.441 205.216 226.528 204.736 226.656C204.255 226.783 203.792 226.948 203.342 227.156C202.892 227.365 202.462 227.61 202.055 227.892C201.649 228.171 201.266 228.487 200.913 228.833L187.576 241.948C185.856 240.214 182.446 238.377 175.697 238.034C172.707 237.89 169.774 237.413 166.892 236.6C164.013 235.79 161.261 234.665 158.638 233.227C156.457 231.93 154.126 231.026 151.64 230.509C144.73 229.192 138.683 230.223 135.038 233.344C132.629 235.246 129.978 236.714 127.083 237.742V236.771C127.083 236.344 127.039 235.921 126.955 235.501C126.871 235.085 126.747 234.675 126.585 234.282C126.421 233.885 126.219 233.512 125.981 233.156C125.742 232.8 125.47 232.471 125.168 232.169C124.865 231.866 124.536 231.597 124.18 231.359C123.824 231.12 123.448 230.919 123.051 230.758C122.655 230.593 122.248 230.469 121.829 230.385C121.409 230.301 120.985 230.26 120.555 230.257H109.177C108.888 230.257 108.613 230.314 108.344 230.425C108.078 230.533 107.843 230.69 107.638 230.895C107.433 231.097 107.279 231.332 107.168 231.597C107.057 231.866 107 232.142 107 232.431V269.549C107 269.838 107.057 270.117 107.168 270.382C107.279 270.647 107.433 270.883 107.638 271.084C107.843 271.289 108.078 271.447 108.344 271.558C108.613 271.665 108.888 271.723 109.177 271.723H120.555C120.985 271.723 121.409 271.679 121.829 271.595C122.248 271.511 122.655 271.387 123.051 271.225C123.448 271.061 123.824 270.859 124.18 270.621C124.536 270.385 124.865 270.113 125.168 269.811C125.473 269.509 125.742 269.179 125.981 268.823C126.219 268.471 126.421 268.094 126.585 267.698C126.747 267.305 126.871 266.898 126.955 266.478C127.039 266.059 127.083 265.635 127.083 265.209V264.933L133.227 264.439C137.195 264.127 141.098 264.51 144.931 265.595C145.066 265.622 158.678 268.42 163.149 269.452C166.307 270.204 169.506 270.59 172.751 270.617C175.462 270.701 178.112 270.352 180.709 269.572C183.303 268.79 185.708 267.617 187.919 266.052C195.185 260.623 213.091 241.464 213.984 240.493C214.72 239.543 215.234 238.488 215.53 237.325C215.825 236.163 215.876 234.991 215.681 233.808ZM122.732 265.209C122.732 265.494 122.675 265.773 122.564 266.038C122.453 266.304 122.295 266.539 122.094 266.744C121.889 266.945 121.654 267.103 121.388 267.214C121.12 267.322 120.844 267.379 120.555 267.379H111.354V234.601H120.555C120.844 234.601 121.12 234.658 121.388 234.769C121.654 234.876 121.889 235.034 122.094 235.239C122.295 235.441 122.453 235.676 122.564 235.941C122.675 236.207 122.732 236.485 122.732 236.771V265.209ZM210.665 237.691C210.484 237.886 192.266 257.378 185.312 262.571C178.935 267.335 170.278 266.64 164.134 265.222C159.609 264.177 146.369 261.456 145.956 261.375C141.673 260.176 137.312 259.753 132.878 260.112L127.083 260.576V242.422C131.013 241.111 134.608 239.183 137.873 236.64C139.119 235.572 142.872 233.264 150.824 234.776C152.833 235.202 154.721 235.945 156.481 236.999C159.404 238.602 162.468 239.858 165.672 240.765C168.881 241.672 172.146 242.207 175.475 242.371C183.971 242.805 185.013 245.277 185.093 246.49C185.08 247.118 184.878 247.676 184.485 248.163C183.662 249.335 181.216 251.435 174.047 252.308C171.115 252.668 168.316 252.218 165.646 250.958C163.63 250.081 161.537 249.486 159.363 249.174C157.186 248.858 155.01 248.838 152.829 249.11C152.544 249.14 152.272 249.224 152.02 249.362C151.768 249.5 151.549 249.678 151.368 249.903C151.187 250.125 151.052 250.377 150.972 250.652C150.891 250.928 150.864 251.21 150.894 251.495C150.925 251.781 151.005 252.05 151.143 252.305C151.281 252.557 151.462 252.775 151.687 252.957C151.909 253.138 152.161 253.269 152.436 253.35C152.712 253.434 152.994 253.461 153.279 253.43C155.12 253.192 156.958 253.209 158.796 253.477C160.633 253.746 162.397 254.26 164.093 255.016C167.45 256.434 170.943 256.968 174.575 256.619C181.479 255.779 186.064 253.696 188.197 250.434C189.054 249.157 189.467 247.753 189.437 246.214L203.967 231.927C204.333 231.577 204.746 231.295 205.21 231.09C205.673 230.885 206.157 230.764 206.661 230.727C207.168 230.69 207.665 230.741 208.152 230.882C208.639 231.02 209.09 231.238 209.5 231.534C209.738 231.702 209.96 231.886 210.161 232.095C210.363 232.306 210.544 232.531 210.702 232.773C210.86 233.019 210.991 233.274 211.099 233.543C211.206 233.811 211.287 234.09 211.344 234.376C211.398 234.661 211.421 234.947 211.421 235.239C211.418 235.528 211.388 235.814 211.33 236.099C211.273 236.385 211.186 236.66 211.075 236.929C210.964 237.194 210.826 237.45 210.665 237.691ZM109.815 172.314C107.05 183.837 120.881 190.226 125.386 191.976C125.437 194.97 125.164 197.936 124.566 200.869C124.509 201.151 124.509 201.433 124.566 201.715C124.624 201.998 124.734 202.26 124.896 202.498C125.057 202.737 125.255 202.935 125.497 203.096C125.736 203.254 125.998 203.361 126.283 203.415C126.565 203.472 126.848 203.472 127.13 203.415C127.412 203.358 127.674 203.247 127.912 203.089C128.154 202.928 128.353 202.727 128.514 202.488C128.672 202.246 128.779 201.987 128.836 201.705C129.475 198.531 129.77 195.322 129.716 192.087C134.363 190.864 145.371 186.836 145.62 175.989C145.583 174.376 145.825 172.807 146.352 171.282C146.88 169.754 147.656 168.37 148.68 167.123C148.969 166.831 149.161 166.488 149.255 166.089C149.349 165.692 149.332 165.299 149.208 164.909C149.08 164.523 148.862 164.194 148.553 163.929C148.244 163.66 147.888 163.492 147.484 163.425C140.117 162.313 134.329 162.985 130.214 165.397C126.031 162.141 119.416 160.223 110.336 159.733C109.916 159.719 109.523 159.82 109.157 160.035C108.794 160.247 108.515 160.542 108.32 160.915C108.125 161.288 108.045 161.684 108.078 162.104C108.112 162.524 108.256 162.904 108.508 163.243C109.372 164.59 109.919 166.055 110.148 167.637C110.376 169.22 110.265 170.778 109.815 172.314ZM143.356 167.325C142.005 170.019 141.31 172.875 141.273 175.888C141.139 181.707 136.398 184.922 132.401 186.611C134.752 182.157 136.865 175.861 134.252 170.254C133.976 169.703 133.66 169.176 133.304 168.675C136.539 167.362 139.889 166.912 143.356 167.325ZM130.308 172.085C132.129 175.992 130.519 180.776 128.692 184.314C128.178 181.975 127.311 179.775 126.088 177.712C124.865 175.65 123.354 173.829 121.546 172.253C121.315 172.082 121.059 171.964 120.78 171.894C120.502 171.827 120.219 171.813 119.937 171.857C119.655 171.897 119.39 171.995 119.141 172.139C118.896 172.287 118.687 172.475 118.516 172.707C118.345 172.935 118.224 173.187 118.153 173.466C118.079 173.745 118.066 174.024 118.106 174.306C118.147 174.591 118.237 174.857 118.385 175.102C118.53 175.351 118.718 175.559 118.946 175.734C120.562 177.215 121.879 178.925 122.897 180.863C123.911 182.802 124.57 184.858 124.869 187.025C120.229 184.875 112.405 180.155 114.045 173.325C114.811 170.318 114.737 167.332 113.816 164.369C122.725 165.343 128.396 167.983 130.308 172.085ZM146.305 215.16C146.742 215.781 147.303 216.262 147.982 216.608C148.66 216.95 149.379 217.118 150.138 217.108H150.148C153.474 217.108 155.322 214.461 155.634 209.244C155.681 208.461 156.4 208.031 158.685 207.05L159.733 206.59C160.737 206.069 161.577 205.354 162.253 204.447C162.924 203.536 163.364 202.525 163.573 201.413C163.878 200.395 163.949 199.364 163.788 198.316C163.627 197.264 163.247 196.303 162.646 195.423C162.32 195.044 161.95 194.711 161.537 194.422C161.127 194.137 160.684 193.905 160.213 193.73C159.743 193.555 159.256 193.441 158.755 193.387C158.258 193.337 157.758 193.347 157.26 193.421C155.937 193.471 155.886 193.411 155.661 193.041C155.403 192.514 155.215 191.963 155.097 191.389C154.973 190.434 154.647 189.561 154.113 188.761C153.582 187.962 152.9 187.324 152.067 186.843C151.304 186.531 150.511 186.336 149.692 186.262C148.869 186.188 148.056 186.238 147.249 186.41C146.44 186.581 145.677 186.867 144.958 187.27C144.236 187.67 143.591 188.167 143.023 188.765C142.452 189.359 141.982 190.025 141.616 190.76C141.246 191.496 140.994 192.272 140.86 193.085C140.725 193.895 140.715 194.711 140.826 195.527C140.937 196.34 141.165 197.123 141.515 197.869C141.931 198.685 142.533 199.33 143.322 199.804C144.065 200.197 144.72 200.711 145.281 201.339C145.654 202.102 145.879 202.911 145.949 203.758C146.023 204.608 145.936 205.441 145.694 206.257C145.14 207.715 144.915 209.22 145.022 210.776C145.13 212.331 145.556 213.793 146.305 215.16ZM145.543 196.058C144.179 194.644 145.257 192.252 146.651 191.331C147.39 190.834 148.203 190.559 149.09 190.508C150.407 190.508 150.595 191.365 150.884 192.474C151.092 193.461 151.445 194.402 151.939 195.285C152.221 195.742 152.564 196.145 152.967 196.502C153.37 196.854 153.817 197.143 154.307 197.362C154.798 197.583 155.309 197.728 155.843 197.795C156.377 197.862 156.908 197.852 157.438 197.761C158.708 197.708 158.943 197.761 159.256 198.148C159.562 198.89 159.588 199.643 159.34 200.405C159.192 201.346 158.725 202.088 157.942 202.633L156.961 203.063C154.529 204.107 151.506 205.407 151.291 208.985C151.15 211.35 150.72 212.765 150.145 212.765C149.467 212.765 149.409 211.266 149.389 210.823C149.346 209.687 149.503 208.579 149.863 207.5C150.021 206.919 151.321 201.722 148.593 198.524C148.136 197.976 147.622 197.489 147.044 197.066C146.514 196.777 146.013 196.438 145.543 196.058Z" fill="#B5DF9C"/>
</g>
</svg>
